<?xml version="1.0" encoding="UTF-8" standalone="no"?>
<svg
   xmlns:dc="http://purl.org/dc/elements/1.1/"
   xmlns:cc="http://creativecommons.org/ns#"
   xmlns:rdf="http://www.w3.org/1999/02/22-rdf-syntax-ns#"
   xmlns:svg="http://www.w3.org/2000/svg"
   xmlns="http://www.w3.org/2000/svg"
   xmlns:sodipodi="http://sodipodi.sourceforge.net/DTD/sodipodi-0.dtd"
   xmlns:inkscape="http://www.inkscape.org/namespaces/inkscape"
   width="150px"
   height="142px"
   viewBox="0 0 256 243"
   version="1.1"
   preserveAspectRatio="xMinYMin meet"
   data-lt-installed="true"
   id="svg48"
   sodipodi:docname="d3-logo.svg"
   inkscape:version="0.92.3 (2405546, 2018-03-11)">
  <metadata
     id="metadata52">
    <rdf:RDF>
      <cc:Work
         rdf:about="">
        <dc:format>image/svg+xml</dc:format>
        <dc:type
           rdf:resource="http://purl.org/dc/dcmitype/StillImage" />
      </cc:Work>
    </rdf:RDF>
  </metadata>
  <sodipodi:namedview
     pagecolor="#ffffff"
     bordercolor="#666666"
     borderopacity="1"
     objecttolerance="10"
     gridtolerance="10"
     guidetolerance="10"
     inkscape:pageopacity="0"
     inkscape:pageshadow="2"
     inkscape:window-width="1203"
     inkscape:window-height="961"
     id="namedview50"
     showgrid="false"
     inkscape:measure-start="0,0"
     inkscape:measure-end="0,0"
     inkscape:zoom="1.6619718"
     inkscape:cx="26.864407"
     inkscape:cy="71"
     inkscape:window-x="0"
     inkscape:window-y="100"
     inkscape:window-maximized="0"
     inkscape:current-layer="svg48" />
  <defs
     id="defs32">
    <linearGradient
       x1="-82.6367258%"
       y1="-92.819878%"
       x2="103.767353%"
       y2="106.041826%"
       id="linearGradient-1">
      <stop
         stop-color="#006400"
         offset="0%"
         id="stop2" />
      <stop
         stop-color="#006400"
         offset="100%"
         id="stop4" />
    </linearGradient>
    <linearGradient
       x1="-258.923825%"
       y1="-248.970263%"
       x2="97.6202479%"
       y2="98.7684937%"
       id="linearGradient-2">
      <stop
         stop-color="#006400"
         offset="0%"
         id="stop7" />
      <stop
         stop-color="#006400"
         offset="100%"
         id="stop9" />
    </linearGradient>
    <linearGradient
       x1="-223.162629%"
       y1="-261.967947%"
       x2="94.0283377%"
       y2="101.690818%"
       id="linearGradient-3">
      <stop
         stop-color="#006400"
         offset="0%"
         id="stop12" />
      <stop
         stop-color="#006400"
         offset="100%"
         id="stop14" />
    </linearGradient>
    <linearGradient
       x1="11.3387123%"
       y1="-1.82169774%"
       x2="82.496193%"
       y2="92.1067478%"
       id="linearGradient-4">
      <stop
         stop-color="#006400"
         offset="0%"
         id="stop17" />
      <stop
         stop-color="#006400"
         offset="100%"
         id="stop19" />
    </linearGradient>
    <linearGradient
       x1="15.8436473%"
       y1="3.85803114%"
       x2="120.126091%"
       y2="72.3802579%"
       id="linearGradient-5">
      <stop
         stop-color="#006400"
         offset="0%"
         id="stop22" />
      <stop
         stop-color="#006400"
         offset="100%"
         id="stop24" />
    </linearGradient>
    <linearGradient
       x1="46.9841705%"
       y1="23.4664325%"
       x2="51.881003%"
       y2="147.391179%"
       id="linearGradient-6">
      <stop
         stop-color="#006400"
         offset="0%"
         id="stop27" />
      <stop
         stop-color="#006400"
         offset="100%"
         id="stop29" />
    </linearGradient>
  </defs>
  <g
     id="g46"
     style="fill:#ececec"
     transform="translate(-1.0296612,-1.0296613)">
    <path
       d="m 255.52,175.61867 c 0.11467,-1.11467 0.19733,-2.24 0.26133,-3.37067 0.0773,-1.33867 -80.56266,-77.850667 -80.56266,-77.850667 h -1.928 c 0,0 81.736,86.215997 82.22933,81.221337 z"
       id="path34"
       style="fill:#ececec"
       inkscape:connector-curvature="0" />
    <path
       d="m 83.472,149.07733 c -0.106667,0.23467 -0.213333,0.46934 -0.322667,0.704 -0.114666,0.24534 -0.232,0.49067 -0.349333,0.73334 -2.570667,5.36 35.98667,43.05333 39.088,38.47466 0.14133,-0.20266 0.28267,-0.416 0.424,-0.61866 0.15733,-0.24 0.312,-0.46934 0.46667,-0.70934 2.48,-3.76533 -38.205337,-41.032 -39.30667,-38.584 z"
       id="path36"
       style="fill:#ececec"
       inkscape:connector-curvature="0" />
    <path
       d="m 137.95733,202.08267 c -0.10933,0.24 -0.88533,1.552 -1.59466,2.24533 -0.12,0.24 37.64,37.688 37.64,37.688 h 3.4 c 0.003,0 -35.44534,-38.34933 -39.44534,-39.93333 z"
       id="path38"
       style="fill:#ececec"
       inkscape:connector-curvature="0" />
    <path
       d="m 255.83467,171.568 c -1.76534,39.14667 -34.152,70.448 -73.72,70.448 h -5.34934 l -39.51466,-38.928 c 3.25066,-4.584 6.272,-9.33333 8.96266,-14.28533 h 35.90134 c 11.35466,0 20.59466,-9.23467 20.59466,-20.59467 0,-11.35467 -9.24,-20.59467 -20.59466,-20.59467 h -21.24534 c 1.61867,-8.55733 2.504,-17.38133 2.504,-26.408 0,-9.16533 -0.90133,-18.11466 -2.57866,-26.807997 H 173.992 l 81.61067,80.413337 c 0.096,-1.07734 0.17333,-2.15467 0.232,-3.24267 z M 21.466667,0 H 0 v 53.213333 h 21.466667 c 37.493333,0 68,30.498667 68,67.991997 0,10.2 -2.274667,19.88267 -6.317334,28.576 L 122.312,188.37067 c 12.85867,-19.24 20.376,-42.33867 20.376,-67.16534 C 142.688,54.373333 88.306667,0 21.466667,0 Z"
       id="path40"
       style="fill:#ececec"
       inkscape:connector-curvature="0" />
    <path
       d="M 182.11467,0 H 95.186667 C 116.41867,12.962667 134,31.344 145.97867,53.213333 h 36.136 c 11.35466,0 20.59466,9.234667 20.59466,20.594667 0,11.357333 -9.24,20.592 -20.59466,20.592 h -8.12 l 81.61066,80.41333 c 0.192,-2.18133 0.312,-4.376 0.312,-6.60533 0,-17.93867 -6.43733,-34.39467 -17.12533,-47.20267 C 249.48,108.20267 255.91733,91.744 255.91733,73.808 255.91733,33.112 222.81333,0 182.11467,0 Z"
       id="path42"
       style="fill:#ececec"
       inkscape:connector-curvature="0" />
    <path
       d="M 176.76533,242.016 H 95.808 c 16.296,-10.064 30.384,-23.34933 41.44267,-38.928 z M 122.312,188.37067 83.152,149.78133 C 72.333333,173.032 48.757333,189.20267 21.466667,189.20267 H 0 v 53.208 h 21.466667 c 42.010666,0 79.090663,-21.488 100.845333,-54.04 z"
       id="path44"
       style="fill:#ececec"
       inkscape:connector-curvature="0" />
  </g>
</svg>
