<svg height="678" version="1.1" width="1148" xmlns="http://www.w3.org/2000/svg" style="overflow: hidden; position: relative;"><desc>Created with Raphaël 2.0.1</desc><defs></defs><rect x="0" y="0" width="1148" height="678" r="0" rx="0" ry="0" fill="#4d3800" stroke="none" style=""></rect><ellipse cx="609" cy="421" rx="126" ry="177.66" fill="#f5f6f7" stroke="#f5f6f7" transform="matrix(1,0,0,1,0,0)" style="opacity: 0.5;" stroke-width="3" opacity="0.5"></ellipse><ellipse cx="616" cy="385" rx="122" ry="172.01999999999998" fill="#f5f6f7" stroke="#f5f6f7" transform="matrix(0.9808,0.1951,-0.1951,0.9808,86.946,-112.778)" style="opacity: 0.5;" stroke-width="3" opacity="0.5"></ellipse><ellipse cx="760" cy="314" rx="123" ry="173.42999999999998" fill="#f5f6f7" stroke="#f5f6f7" transform="matrix(0.9239,0.3827,-0.3827,0.9239,178.0142,-266.9376)" style="opacity: 0.5;" stroke-width="3" opacity="0.5"></ellipse><ellipse cx="614" cy="425" rx="129" ry="181.89" fill="#f5f6f7" stroke="#f5f6f7" transform="matrix(0.8315,0.5556,-0.5556,0.8315,339.595,-269.4947)" style="opacity: 0.5;" stroke-width="3" opacity="0.5"></ellipse><ellipse cx="828" cy="343" rx="126" ry="177.66" fill="#f5f6f7" stroke="#f5f6f7" transform="matrix(0.7071,0.7071,-0.7071,0.7071,485.0532,-485.022)" style="opacity: 0.5;" stroke-width="3" opacity="0.5"></ellipse><ellipse cx="680" cy="308" rx="122" ry="172.01999999999998" fill="#f5f6f7" stroke="#f5f6f7" transform="matrix(0.5556,0.8315,-0.8315,0.5556,558.3049,-428.515)" style="opacity: 0.5;" stroke-width="3" opacity="0.5"></ellipse><ellipse cx="714" cy="423" rx="122" ry="172.01999999999998" fill="#f5f6f7" stroke="#f5f6f7" transform="matrix(0.3827,0.9239,-0.9239,0.3827,831.5651,-398.5251)" style="opacity: 0.5;" stroke-width="3" opacity="0.5"></ellipse><ellipse cx="592" cy="356" rx="125" ry="176.25" fill="#f5f6f7" stroke="#f5f6f7" transform="matrix(0.1951,0.9808,-0.9808,0.1951,825.6661,-294.077)" style="opacity: 0.5;" stroke-width="3" opacity="0.5"></ellipse><ellipse cx="600" cy="287" rx="124" ry="174.84" fill="#f5f6f7" stroke="#f5f6f7" transform="matrix(0,1,-1,0,887,-313)" style="opacity: 0.5;" stroke-width="3" opacity="0.5"></ellipse><ellipse cx="390" cy="324" rx="122" ry="172.01999999999998" fill="#f5f6f7" stroke="#f5f6f7" transform="matrix(-0.1951,0.9808,-0.9808,-0.1951,783.8597,4.703)" style="opacity: 0.5;" stroke-width="3" opacity="0.5"></ellipse><ellipse cx="611" cy="247" rx="125" ry="176.25" fill="#f5f6f7" stroke="#f5f6f7" transform="matrix(-0.3827,0.9239,-0.9239,-0.3827,1073.0178,-222.9676)" style="opacity: 0.5;" stroke-width="3" opacity="0.5"></ellipse><ellipse cx="388" cy="287" rx="121" ry="170.60999999999999" fill="#f5f6f7" stroke="#f5f6f7" transform="matrix(-0.5556,0.8315,-0.8315,-0.5556,842.193,123.8384)" style="opacity: 0.5;" stroke-width="3" opacity="0.5"></ellipse><ellipse cx="391" cy="326" rx="120" ry="169.2" fill="#f5f6f7" stroke="#f5f6f7" transform="matrix(-0.7071,0.7071,-0.7071,-0.7071,897.9956,280.0381)" style="opacity: 0.5;" stroke-width="3" opacity="0.5"></ellipse><ellipse cx="446" cy="337" rx="130" ry="183.29999999999998" fill="#f5f6f7" stroke="#f5f6f7" transform="matrix(-0.8315,0.5556,-0.5556,-0.8315,1004.0626,369.4209)" style="opacity: 0.5;" stroke-width="3" opacity="0.5"></ellipse><ellipse cx="625" cy="340" rx="125" ry="176.25" fill="#f5f6f7" stroke="#f5f6f7" transform="matrix(-0.9239,0.3827,-0.3827,-0.9239,1332.5371,414.9419)" style="opacity: 0.5;" stroke-width="3" opacity="0.5"></ellipse><ellipse cx="769" cy="244" rx="128" ry="180.48" fill="#f5f6f7" stroke="#f5f6f7" transform="matrix(-0.9808,0.1951,-0.1951,-0.9808,1570.8259,333.2872)" style="opacity: 0.5;" stroke-width="3" opacity="0.5"></ellipse><ellipse cx="792" cy="266" rx="124" ry="174.84" fill="#f5f6f7" stroke="#f5f6f7" transform="matrix(-1,0,0,-1,1584,532)" style="opacity: 0.5;" stroke-width="3" opacity="0.5"></ellipse><ellipse cx="543" cy="323" rx="130" ry="183.29999999999998" fill="#f5f6f7" stroke="#f5f6f7" transform="matrix(-0.9808,-0.1951,0.1951,-0.9808,1012.5522,745.7277)" style="opacity: 0.5;" stroke-width="3" opacity="0.5"></ellipse><ellipse cx="329" cy="265" rx="130" ry="183.29999999999998" fill="#f5f6f7" stroke="#f5f6f7" transform="matrix(-0.9239,-0.3827,0.3827,-0.9239,531.5453,635.7309)" style="opacity: 0.5;" stroke-width="3" opacity="0.5"></ellipse><ellipse cx="823" cy="303" rx="127" ry="179.07" fill="#f5f6f7" stroke="#f5f6f7" transform="matrix(-0.8315,-0.5556,0.5556,-0.8315,1338.9617,1012.1696)" style="opacity: 0.5;" stroke-width="3" opacity="0.5"></ellipse><ellipse cx="560" cy="432" rx="120" ry="169.2" fill="#f5f6f7" stroke="#f5f6f7" transform="matrix(-0.7071,-0.7071,0.7071,-0.7071,650.5097,1133.4499)" style="opacity: 0.5;" stroke-width="3" opacity="0.5"></ellipse><ellipse cx="386" cy="414" rx="125" ry="176.25" fill="#f5f6f7" stroke="#f5f6f7" transform="matrix(-0.5556,-0.8315,0.8315,-0.5556,256.2217,964.9533)" style="opacity: 0.5;" stroke-width="3" opacity="0.5"></ellipse><ellipse cx="795" cy="299" rx="129" ry="181.89" fill="#f5f6f7" stroke="#f5f6f7" transform="matrix(-0.3827,-0.9239,0.9239,-0.3827,822.9933,1147.9066)" style="opacity: 0.5;" stroke-width="3" opacity="0.5"></ellipse><ellipse cx="535" cy="392" rx="121" ry="170.60999999999999" fill="#f5f6f7" stroke="#f5f6f7" transform="matrix(-0.1951,-0.9808,0.9808,-0.1951,254.9055,993.1955)" style="opacity: 0.5;" stroke-width="3" opacity="0.5"></ellipse><ellipse cx="439" cy="389" rx="120" ry="169.2" fill="#f5f6f7" stroke="#f5f6f7" transform="matrix(0,-1,1,0,50,828)" style="opacity: 0.5;" stroke-width="3" opacity="0.5"></ellipse><ellipse cx="396" cy="337" rx="129" ry="181.89" fill="#f5f6f7" stroke="#f5f6f7" transform="matrix(0.1951,-0.9808,0.9808,0.1951,-11.7804,659.6455)" style="opacity: 0.5;" stroke-width="3" opacity="0.5"></ellipse><ellipse cx="685" cy="296" rx="126" ry="177.66" fill="#f5f6f7" stroke="#f5f6f7" transform="matrix(0.3827,-0.9239,0.9239,0.3827,149.3935,815.5832)" style="opacity: 0.5;" stroke-width="3" opacity="0.5"></ellipse><ellipse cx="406" cy="416" rx="120" ry="169.2" fill="#f5f6f7" stroke="#f5f6f7" transform="matrix(0.5556,-0.8315,0.8315,0.5556,-165.4529,522.4594)" style="opacity: 0.5;" stroke-width="3" opacity="0.5"></ellipse><ellipse cx="726" cy="430" rx="127" ry="179.07" fill="#f5f6f7" stroke="#f5f6f7" transform="matrix(0.7071,-0.7071,0.7071,0.7071,-91.4154,639.3036)" style="opacity: 0.5;" stroke-width="3" opacity="0.5"></ellipse><ellipse cx="824" cy="342" rx="129" ry="181.89" fill="#f5f6f7" stroke="#f5f6f7" transform="matrix(0.8315,-0.5556,0.5556,0.8315,-51.136,515.4273)" style="opacity: 0.5;" stroke-width="3" opacity="0.5"></ellipse><ellipse cx="446" cy="390" rx="129" ry="181.89" fill="#f5f6f7" stroke="#f5f6f7" transform="matrix(0.9239,-0.3827,0.3827,0.9239,-115.2968,200.3638)" style="opacity: 0.5;" stroke-width="3" opacity="0.5"></ellipse><ellipse cx="397" cy="369" rx="120" ry="169.2" fill="#f5f6f7" stroke="#f5f6f7" transform="matrix(0.9808,-0.1951,0.1951,0.9808,-64.3601,84.5411)" style="opacity: 0.5;" stroke-width="3" opacity="0.5"></ellipse></svg>