<svg height="678" version="1.1" width="1148" xmlns="http://www.w3.org/2000/svg" style="overflow: hidden; position: relative;"><desc>Created with Raphaël 2.0.1</desc><defs></defs><rect x="0" y="0" width="1148" height="678" r="0" rx="0" ry="0" fill="#002ead" stroke="none" style=""></rect><ellipse cx="598" cy="264" rx="126" ry="177.66" fill="#f5f6f7" stroke="#f5f6f7" transform="matrix(1,0,0,1,0,0)" style="opacity: 0.5;" stroke-width="3" opacity="0.5"></ellipse><ellipse cx="590" cy="326" rx="125" ry="176.25" fill="#f5f6f7" stroke="#f5f6f7" transform="matrix(0.9808,0.1951,-0.1951,0.9808,74.9361,-108.8393)" style="opacity: 0.5;" stroke-width="3" opacity="0.5"></ellipse><ellipse cx="712" cy="286" rx="123" ry="173.42999999999998" fill="#f5f6f7" stroke="#f5f6f7" transform="matrix(0.9239,0.3827,-0.3827,0.9239,163.6452,-250.7002)" style="opacity: 0.5;" stroke-width="3" opacity="0.5"></ellipse><ellipse cx="727" cy="327" rx="129" ry="181.89" fill="#f5f6f7" stroke="#f5f6f7" transform="matrix(0.8315,0.5556,-0.5556,0.8315,304.1931,-348.7901)" style="opacity: 0.5;" stroke-width="3" opacity="0.5"></ellipse><ellipse cx="468" cy="408" rx="129" ry="181.89" fill="#f5f6f7" stroke="#f5f6f7" transform="matrix(0.7071,0.7071,-0.7071,0.7071,425.5736,-211.4255)" style="opacity: 0.5;" stroke-width="3" opacity="0.5"></ellipse><ellipse cx="828" cy="271" rx="128" ry="180.48" fill="#f5f6f7" stroke="#f5f6f7" transform="matrix(0.5556,0.8315,-0.8315,0.5556,593.3161,-568.0164)" style="opacity: 0.5;" stroke-width="3" opacity="0.5"></ellipse><ellipse cx="388" cy="421" rx="126" ry="177.66" fill="#f5f6f7" stroke="#f5f6f7" transform="matrix(0.3827,0.9239,-0.9239,0.3827,628.4721,-98.575)" style="opacity: 0.5;" stroke-width="3" opacity="0.5"></ellipse><ellipse cx="717" cy="294" rx="121" ry="170.60999999999999" fill="#f5f6f7" stroke="#f5f6f7" transform="matrix(0.1951,0.9808,-0.9808,0.1951,865.4711,-466.5796)" style="opacity: 0.5;" stroke-width="3" opacity="0.5"></ellipse><ellipse cx="596" cy="307" rx="128" ry="180.48" fill="#f5f6f7" stroke="#f5f6f7" transform="matrix(0,1,-1,0,903,-289)" style="opacity: 0.5;" stroke-width="3" opacity="0.5"></ellipse><ellipse cx="531" cy="398" rx="128" ry="180.48" fill="#f5f6f7" stroke="#f5f6f7" transform="matrix(-0.1951,0.9808,-0.9808,-0.1951,1024.9455,-45.151)" style="opacity: 0.5;" stroke-width="3" opacity="0.5"></ellipse><ellipse cx="624" cy="321" rx="121" ry="170.60999999999999" fill="#f5f6f7" stroke="#f5f6f7" transform="matrix(-0.3827,0.9239,-0.9239,-0.3827,1159.3598,-132.6594)" style="opacity: 0.5;" stroke-width="3" opacity="0.5"></ellipse><ellipse cx="490" cy="373" rx="127" ry="179.07" fill="#f5f6f7" stroke="#f5f6f7" transform="matrix(-0.5556,0.8315,-0.8315,-0.5556,1072.3676,172.8076)" style="opacity: 0.5;" stroke-width="3" opacity="0.5"></ellipse><ellipse cx="635" cy="262" rx="128" ry="180.48" fill="#f5f6f7" stroke="#f5f6f7" transform="matrix(-0.7071,0.7071,-0.7071,-0.7071,1269.2748,-1.7508)" style="opacity: 0.5;" stroke-width="3" opacity="0.5"></ellipse><ellipse cx="768" cy="349" rx="124" ry="174.84" fill="#f5f6f7" stroke="#f5f6f7" transform="matrix(-0.8315,0.5556,-0.5556,-0.8315,1600.4627,212.505)" style="opacity: 0.5;" stroke-width="3" opacity="0.5"></ellipse><ellipse cx="490" cy="435" rx="128" ry="180.48" fill="#f5f6f7" stroke="#f5f6f7" transform="matrix(-0.9239,0.3827,-0.3827,-0.9239,1109.1683,649.3727)" style="opacity: 0.5;" stroke-width="3" opacity="0.5"></ellipse><ellipse cx="655" cy="412" rx="130" ry="183.29999999999998" fill="#f5f6f7" stroke="#f5f6f7" transform="matrix(-0.9808,0.1951,-0.1951,-0.9808,1377.7916,688.2994)" style="opacity: 0.5;" stroke-width="3" opacity="0.5"></ellipse><ellipse cx="546" cy="311" rx="128" ry="180.48" fill="#f5f6f7" stroke="#f5f6f7" transform="matrix(-1,0,0,-1,1092,622)" style="opacity: 0.5;" stroke-width="3" opacity="0.5"></ellipse><ellipse cx="641" cy="388" rx="121" ry="170.60999999999999" fill="#f5f6f7" stroke="#f5f6f7" transform="matrix(-0.9808,-0.1951,0.1951,-0.9808,1193.9883,893.5976)" style="opacity: 0.5;" stroke-width="3" opacity="0.5"></ellipse><ellipse cx="387" cy="422" rx="128" ry="180.48" fill="#f5f6f7" stroke="#f5f6f7" transform="matrix(-0.9239,-0.3827,0.3827,-0.9239,583.049,959.9757)" style="opacity: 0.5;" stroke-width="3" opacity="0.5"></ellipse><ellipse cx="708" cy="263" rx="121" ry="170.60999999999999" fill="#f5f6f7" stroke="#f5f6f7" transform="matrix(-0.8315,-0.5556,0.5556,-0.8315,1150.5655,875.0202)" style="opacity: 0.5;" stroke-width="3" opacity="0.5"></ellipse><ellipse cx="649" cy="341" rx="121" ry="170.60999999999999" fill="#f5f6f7" stroke="#f5f6f7" transform="matrix(-0.7071,-0.7071,0.7071,-0.7071,866.7889,1041.0357)" style="opacity: 0.5;" stroke-width="3" opacity="0.5"></ellipse><ellipse cx="558" cy="438" rx="121" ry="170.60999999999999" fill="#f5f6f7" stroke="#f5f6f7" transform="matrix(-0.5556,-0.8315,0.8315,-0.5556,503.8245,1145.2998)" style="opacity: 0.5;" stroke-width="3" opacity="0.5"></ellipse><ellipse cx="710" cy="263" rx="120" ry="169.2" fill="#f5f6f7" stroke="#f5f6f7" transform="matrix(-0.3827,-0.9239,0.9239,-0.3827,738.7249,1019.6002)" style="opacity: 0.5;" stroke-width="3" opacity="0.5"></ellipse><ellipse cx="828" cy="324" rx="122" ry="172.01999999999998" fill="#f5f6f7" stroke="#f5f6f7" transform="matrix(-0.1951,-0.9808,0.9808,-0.1951,671.7604,1199.2995)" style="opacity: 0.5;" stroke-width="3" opacity="0.5"></ellipse><ellipse cx="342" cy="244" rx="127" ry="179.07" fill="#f5f6f7" stroke="#f5f6f7" transform="matrix(0,-1,1,0,98,586)" style="opacity: 0.5;" stroke-width="3" opacity="0.5"></ellipse><ellipse cx="414" cy="331" rx="127" ry="179.07" fill="#f5f6f7" stroke="#f5f6f7" transform="matrix(0.1951,-0.9808,0.9808,0.1951,8.5927,672.4702)" style="opacity: 0.5;" stroke-width="3" opacity="0.5"></ellipse><ellipse cx="559" cy="350" rx="124" ry="174.84" fill="#f5f6f7" stroke="#f5f6f7" transform="matrix(0.3827,-0.9239,0.9239,0.3827,21.7221,732.5095)" style="opacity: 0.5;" stroke-width="3" opacity="0.5"></ellipse><ellipse cx="559" cy="305" rx="124" ry="174.84" fill="#f5f6f7" stroke="#f5f6f7" transform="matrix(0.5556,-0.8315,0.8315,0.5556,-5.162,600.3426)" style="opacity: 0.5;" stroke-width="3" opacity="0.5"></ellipse><ellipse cx="681" cy="432" rx="128" ry="180.48" fill="#f5f6f7" stroke="#f5f6f7" transform="matrix(0.7071,-0.7071,0.7071,0.7071,-106.0098,608.0696)" style="opacity: 0.5;" stroke-width="3" opacity="0.5"></ellipse><ellipse cx="643" cy="303" rx="124" ry="174.84" fill="#f5f6f7" stroke="#f5f6f7" transform="matrix(0.8315,-0.5556,0.5556,0.8315,-59.9727,408.2964)" style="opacity: 0.5;" stroke-width="3" opacity="0.5"></ellipse><ellipse cx="824" cy="432" rx="120" ry="169.2" fill="#f5f6f7" stroke="#f5f6f7" transform="matrix(0.9239,-0.3827,0.3827,0.9239,-102.596,348.2152)" style="opacity: 0.5;" stroke-width="3" opacity="0.5"></ellipse><ellipse cx="369" cy="341" rx="126" ry="177.66" fill="#f5f6f7" stroke="#f5f6f7" transform="matrix(0.9808,-0.1951,0.1951,0.9808,-59.4356,78.5405)" style="opacity: 0.5;" stroke-width="3" opacity="0.5"></ellipse></svg>