<svg height="678" version="1.1" width="1148" xmlns="http://www.w3.org/2000/svg" style="overflow: hidden; position: relative;"><desc>Created with Raphaël 2.0.1</desc><defs></defs><rect x="0" y="0" width="1148" height="678" r="0" rx="0" ry="0" fill="#5a01a7" stroke="none" style=""></rect><ellipse cx="332" cy="399" rx="120" ry="169.2" fill="#f5f6f7" stroke="#f5f6f7" transform="matrix(1,0,0,1,0,0)" style="opacity: 0.5;" stroke-width="3" opacity="0.5"></ellipse><ellipse cx="321" cy="389" rx="125" ry="176.25" fill="#f5f6f7" stroke="#f5f6f7" transform="matrix(0.9808,0.1951,-0.1951,0.9808,82.0581,-55.1495)" style="opacity: 0.5;" stroke-width="3" opacity="0.5"></ellipse><ellipse cx="778" cy="296" rx="129" ry="181.89" fill="#f5f6f7" stroke="#f5f6f7" transform="matrix(0.9239,0.3827,-0.3827,0.9239,172.496,-275.1961)" style="opacity: 0.5;" stroke-width="3" opacity="0.5"></ellipse><ellipse cx="582" cy="316" rx="121" ry="170.60999999999999" fill="#f5f6f7" stroke="#f5f6f7" transform="matrix(0.8315,0.5556,-0.5556,0.8315,273.6449,-270.0863)" style="opacity: 0.5;" stroke-width="3" opacity="0.5"></ellipse><ellipse cx="700" cy="346" rx="130" ry="183.29999999999998" fill="#f5f6f7" stroke="#f5f6f7" transform="matrix(0.7071,0.7071,-0.7071,0.7071,449.6842,-393.6337)" style="opacity: 0.5;" stroke-width="3" opacity="0.5"></ellipse><ellipse cx="828" cy="380" rx="125" ry="176.25" fill="#f5f6f7" stroke="#f5f6f7" transform="matrix(0.5556,0.8315,-0.8315,0.5556,683.9463,-519.5735)" style="opacity: 0.5;" stroke-width="3" opacity="0.5"></ellipse><ellipse cx="762" cy="308" rx="122" ry="172.01999999999998" fill="#f5f6f7" stroke="#f5f6f7" transform="matrix(0.3827,0.9239,-0.9239,0.3827,754.9501,-513.8627)" style="opacity: 0.5;" stroke-width="3" opacity="0.5"></ellipse><ellipse cx="434" cy="390" rx="122" ry="172.01999999999998" fill="#f5f6f7" stroke="#f5f6f7" transform="matrix(0.1951,0.9808,-0.9808,0.1951,731.8371,-111.746)" style="opacity: 0.5;" stroke-width="3" opacity="0.5"></ellipse><ellipse cx="463" cy="270" rx="125" ry="176.25" fill="#f5f6f7" stroke="#f5f6f7" transform="matrix(0,1,-1,0,733,-193)" style="opacity: 0.5;" stroke-width="3" opacity="0.5"></ellipse><ellipse cx="658" cy="411" rx="128" ry="180.48" fill="#f5f6f7" stroke="#f5f6f7" transform="matrix(-0.1951,0.9808,-0.9808,-0.1951,1189.4722,-154.1746)" style="opacity: 0.5;" stroke-width="3" opacity="0.5"></ellipse><ellipse cx="624" cy="373" rx="125" ry="176.25" fill="#f5f6f7" stroke="#f5f6f7" transform="matrix(-0.3827,0.9239,-0.9239,-0.3827,1207.4015,-60.7599)" style="opacity: 0.5;" stroke-width="3" opacity="0.5"></ellipse><ellipse cx="425" cy="304" rx="120" ry="169.2" fill="#f5f6f7" stroke="#f5f6f7" transform="matrix(-0.5556,0.8315,-0.8315,-0.5556,913.8841,119.5188)" style="opacity: 0.5;" stroke-width="3" opacity="0.5"></ellipse><ellipse cx="585" cy="264" rx="125" ry="176.25" fill="#f5f6f7" stroke="#f5f6f7" transform="matrix(-0.7071,0.7071,-0.7071,-0.7071,1185.3337,37.0187)" style="opacity: 0.5;" stroke-width="3" opacity="0.5"></ellipse><ellipse cx="602" cy="418" rx="127" ry="179.07" fill="#f5f6f7" stroke="#f5f6f7" transform="matrix(-0.8315,0.5556,-0.5556,-0.8315,1334.7731,431.101)" style="opacity: 0.5;" stroke-width="3" opacity="0.5"></ellipse><ellipse cx="702" cy="397" rx="130" ry="183.29999999999998" fill="#f5f6f7" stroke="#f5f6f7" transform="matrix(-0.9239,0.3827,-0.3827,-0.9239,1502.4888,495.1364)" style="opacity: 0.5;" stroke-width="3" opacity="0.5"></ellipse><ellipse cx="473" cy="434" rx="130" ry="183.29999999999998" fill="#f5f6f7" stroke="#f5f6f7" transform="matrix(-0.9808,0.1951,-0.1951,-0.9808,1021.5806,767.3831)" style="opacity: 0.5;" stroke-width="3" opacity="0.5"></ellipse><ellipse cx="364" cy="425" rx="130" ry="183.29999999999998" fill="#f5f6f7" stroke="#f5f6f7" transform="matrix(-1,0,0,-1,728,850)" style="opacity: 0.5;" stroke-width="3" opacity="0.5"></ellipse><ellipse cx="340" cy="417" rx="129" ry="181.89" fill="#f5f6f7" stroke="#f5f6f7" transform="matrix(-0.9808,-0.1951,0.1951,-0.9808,592.1143,892.3182)" style="opacity: 0.5;" stroke-width="3" opacity="0.5"></ellipse><ellipse cx="359" cy="245" rx="129" ry="181.89" fill="#f5f6f7" stroke="#f5f6f7" transform="matrix(-0.9239,-0.3827,0.3827,-0.9239,596.9153,608.7338)" style="opacity: 0.5;" stroke-width="3" opacity="0.5"></ellipse><ellipse cx="631" cy="307" rx="122" ry="172.01999999999998" fill="#f5f6f7" stroke="#f5f6f7" transform="matrix(-0.8315,-0.5556,0.5556,-0.8315,985.0973,912.826)" style="opacity: 0.5;" stroke-width="3" opacity="0.5"></ellipse><ellipse cx="795" cy="331" rx="121" ry="170.60999999999999" fill="#f5f6f7" stroke="#f5f6f7" transform="matrix(-0.7071,-0.7071,0.7071,-0.7071,1123.0975,1127.2022)" style="opacity: 0.5;" stroke-width="3" opacity="0.5"></ellipse><ellipse cx="456" cy="259" rx="130" ry="183.29999999999998" fill="#f5f6f7" stroke="#f5f6f7" transform="matrix(-0.5556,-0.8315,0.8315,-0.5556,493.9894,782.0428)" style="opacity: 0.5;" stroke-width="3" opacity="0.5"></ellipse><ellipse cx="396" cy="340" rx="124" ry="174.84" fill="#f5f6f7" stroke="#f5f6f7" transform="matrix(-0.3827,-0.9239,0.9239,-0.3827,233.4236,835.9687)" style="opacity: 0.5;" stroke-width="3" opacity="0.5"></ellipse><ellipse cx="372" cy="416" rx="124" ry="174.84" fill="#f5f6f7" stroke="#f5f6f7" transform="matrix(-0.1951,-0.9808,0.9808,-0.1951,36.5669,862.0097)" style="opacity: 0.5;" stroke-width="3" opacity="0.5"></ellipse><ellipse cx="491" cy="244" rx="130" ry="183.29999999999998" fill="#f5f6f7" stroke="#f5f6f7" transform="matrix(0,-1,1,0,247,735)" style="opacity: 0.5;" stroke-width="3" opacity="0.5"></ellipse><ellipse cx="413" cy="256" rx="126" ry="177.66" fill="#f5f6f7" stroke="#f5f6f7" transform="matrix(0.1951,-0.9808,0.9808,0.1951,81.3467,611.1212)" style="opacity: 0.5;" stroke-width="3" opacity="0.5"></ellipse><ellipse cx="461" cy="392" rx="123" ry="173.42999999999998" fill="#f5f6f7" stroke="#f5f6f7" transform="matrix(0.3827,-0.9239,0.9239,0.3827,-77.5778,667.8966)" style="opacity: 0.5;" stroke-width="3" opacity="0.5"></ellipse><ellipse cx="722" cy="335" rx="122" ry="172.01999999999998" fill="#f5f6f7" stroke="#f5f6f7" transform="matrix(0.5556,-0.8315,0.8315,0.5556,42.336,749.205)" style="opacity: 0.5;" stroke-width="3" opacity="0.5"></ellipse><ellipse cx="828" cy="391" rx="125" ry="176.25" fill="#f5f6f7" stroke="#f5f6f7" transform="matrix(0.7071,-0.7071,0.7071,0.7071,-33.9632,700.0057)" style="opacity: 0.5;" stroke-width="3" opacity="0.5"></ellipse><ellipse cx="750" cy="297" rx="124" ry="174.84" fill="#f5f6f7" stroke="#f5f6f7" transform="matrix(0.8315,-0.5556,0.5556,0.8315,-38.6066,466.7312)" style="opacity: 0.5;" stroke-width="3" opacity="0.5"></ellipse><ellipse cx="816" cy="291" rx="121" ry="170.60999999999999" fill="#f5f6f7" stroke="#f5f6f7" transform="matrix(0.9239,-0.3827,0.3827,0.9239,-49.2466,334.4207)" style="opacity: 0.5;" stroke-width="3" opacity="0.5"></ellipse><ellipse cx="505" cy="409" rx="120" ry="169.2" fill="#f5f6f7" stroke="#f5f6f7" transform="matrix(0.9808,-0.1951,0.1951,0.9808,-70.0885,106.3794)" style="opacity: 0.5;" stroke-width="3" opacity="0.5"></ellipse></svg>