<svg height="678" version="1.1" width="1148" xmlns="http://www.w3.org/2000/svg" style="overflow: hidden; position: relative;"><desc>Created with Raphaël 2.0.1</desc><defs></defs><rect x="0" y="0" width="1148" height="678" r="0" rx="0" ry="0" fill="#00471b" stroke="none" style=""></rect><ellipse cx="516" cy="244" rx="121" ry="170.60999999999999" fill="#f5f6f7" stroke="#f5f6f7" transform="matrix(1,0,0,1,0,0)" style="opacity: 0.5;" stroke-width="3" opacity="0.5"></ellipse><ellipse cx="797" cy="412" rx="124" ry="174.84" fill="#f5f6f7" stroke="#f5f6f7" transform="matrix(0.9808,0.1951,-0.1951,0.9808,95.6913,-147.5705)" style="opacity: 0.5;" stroke-width="3" opacity="0.5"></ellipse><ellipse cx="334" cy="390" rx="122" ry="172.01999999999998" fill="#f5f6f7" stroke="#f5f6f7" transform="matrix(0.9239,0.3827,-0.3827,0.9239,174.6708,-98.1293)" style="opacity: 0.5;" stroke-width="3" opacity="0.5"></ellipse><ellipse cx="434" cy="329" rx="126" ry="177.66" fill="#f5f6f7" stroke="#f5f6f7" transform="matrix(0.8315,0.5556,-0.5556,0.8315,255.9248,-185.671)" style="opacity: 0.5;" stroke-width="3" opacity="0.5"></ellipse><ellipse cx="397" cy="353" rx="126" ry="177.66" fill="#f5f6f7" stroke="#f5f6f7" transform="matrix(0.7071,0.7071,-0.7071,0.7071,365.8873,-177.3301)" style="opacity: 0.5;" stroke-width="3" opacity="0.5"></ellipse><ellipse cx="728" cy="432" rx="122" ry="172.01999999999998" fill="#f5f6f7" stroke="#f5f6f7" transform="matrix(0.5556,0.8315,-0.8315,0.5556,682.7397,-413.3162)" style="opacity: 0.5;" stroke-width="3" opacity="0.5"></ellipse><ellipse cx="331" cy="374" rx="122" ry="172.01999999999998" fill="#f5f6f7" stroke="#f5f6f7" transform="matrix(0.3827,0.9239,-0.9239,0.3827,549.8627,-74.9277)" style="opacity: 0.5;" stroke-width="3" opacity="0.5"></ellipse><ellipse cx="745" cy="411" rx="121" ry="170.60999999999999" fill="#f5f6f7" stroke="#f5f6f7" transform="matrix(0.1951,0.9808,-0.9808,0.1951,1002.7605,-399.8672)" style="opacity: 0.5;" stroke-width="3" opacity="0.5"></ellipse><ellipse cx="723" cy="256" rx="126" ry="177.66" fill="#f5f6f7" stroke="#f5f6f7" transform="matrix(0,1,-1,0,979,-467)" style="opacity: 0.5;" stroke-width="3" opacity="0.5"></ellipse><ellipse cx="630" cy="331" rx="127" ry="179.07" fill="#f5f6f7" stroke="#f5f6f7" transform="matrix(-0.1951,0.9808,-0.9808,-0.1951,1077.5468,-222.3198)" style="opacity: 0.5;" stroke-width="3" opacity="0.5"></ellipse><ellipse cx="566" cy="247" rx="122" ry="172.01999999999998" fill="#f5f6f7" stroke="#f5f6f7" transform="matrix(-0.3827,0.9239,-0.9239,-0.3827,1010.7971,-181.393)" style="opacity: 0.5;" stroke-width="3" opacity="0.5"></ellipse><ellipse cx="730" cy="337" rx="121" ry="170.60999999999999" fill="#f5f6f7" stroke="#f5f6f7" transform="matrix(-0.5556,0.8315,-0.8315,-0.5556,1415.7715,-82.7456)" style="opacity: 0.5;" stroke-width="3" opacity="0.5"></ellipse><ellipse cx="635" cy="264" rx="121" ry="170.60999999999999" fill="#f5f6f7" stroke="#f5f6f7" transform="matrix(-0.7071,0.7071,-0.7071,-0.7071,1270.689,1.6634)" style="opacity: 0.5;" stroke-width="3" opacity="0.5"></ellipse><ellipse cx="828" cy="370" rx="126" ry="177.66" fill="#f5f6f7" stroke="#f5f6f7" transform="matrix(-0.8315,0.5556,-0.5556,-0.8315,1722.0178,217.6316)" style="opacity: 0.5;" stroke-width="3" opacity="0.5"></ellipse><ellipse cx="531" cy="340" rx="124" ry="174.84" fill="#f5f6f7" stroke="#f5f6f7" transform="matrix(-0.9239,0.3827,-0.3827,-0.9239,1151.6924,450.9141)" style="opacity: 0.5;" stroke-width="3" opacity="0.5"></ellipse><ellipse cx="345" cy="342" rx="130" ry="183.29999999999998" fill="#f5f6f7" stroke="#f5f6f7" transform="matrix(-0.9808,0.1951,-0.1951,-0.9808,750.0918,610.1224)" style="opacity: 0.5;" stroke-width="3" opacity="0.5"></ellipse><ellipse cx="332" cy="332" rx="123" ry="173.42999999999998" fill="#f5f6f7" stroke="#f5f6f7" transform="matrix(-1,0,0,-1,664,664)" style="opacity: 0.5;" stroke-width="3" opacity="0.5"></ellipse><ellipse cx="368" cy="268" rx="126" ry="177.66" fill="#f5f6f7" stroke="#f5f6f7" transform="matrix(-0.9808,-0.1951,0.1951,-0.9808,676.6448,602.6437)" style="opacity: 0.5;" stroke-width="3" opacity="0.5"></ellipse><ellipse cx="758" cy="249" rx="122" ry="172.01999999999998" fill="#f5f6f7" stroke="#f5f6f7" transform="matrix(-0.9239,-0.3827,0.3827,-0.9239,1363.0125,769.12)" style="opacity: 0.5;" stroke-width="3" opacity="0.5"></ellipse><ellipse cx="446" cy="326" rx="120" ry="169.2" fill="#f5f6f7" stroke="#f5f6f7" transform="matrix(-0.8315,-0.5556,0.5556,-0.8315,635.7196,844.8434)" style="opacity: 0.5;" stroke-width="3" opacity="0.5"></ellipse><ellipse cx="378" cy="364" rx="120" ry="169.2" fill="#f5f6f7" stroke="#f5f6f7" transform="matrix(-0.7071,-0.7071,0.7071,-0.7071,387.8995,888.6732)" style="opacity: 0.5;" stroke-width="3" opacity="0.5"></ellipse><ellipse cx="804" cy="276" rx="126" ry="177.66" fill="#f5f6f7" stroke="#f5f6f7" transform="matrix(-0.5556,-0.8315,0.8315,-0.5556,1021.1929,1097.839)" style="opacity: 0.5;" stroke-width="3" opacity="0.5"></ellipse><ellipse cx="409" cy="315" rx="123" ry="173.42999999999998" fill="#f5f6f7" stroke="#f5f6f7" transform="matrix(-0.3827,-0.9239,0.9239,-0.3827,274.4955,813.412)" style="opacity: 0.5;" stroke-width="3" opacity="0.5"></ellipse><ellipse cx="542" cy="303" rx="121" ry="170.60999999999999" fill="#f5f6f7" stroke="#f5f6f7" transform="matrix(-0.1951,-0.9808,0.9808,-0.1951,350.561,893.698)" style="opacity: 0.5;" stroke-width="3" opacity="0.5"></ellipse><ellipse cx="780" cy="385" rx="125" ry="176.25" fill="#f5f6f7" stroke="#f5f6f7" transform="matrix(0,-1,1,0,395,1165)" style="opacity: 0.5;" stroke-width="3" opacity="0.5"></ellipse><ellipse cx="434" cy="314" rx="123" ry="173.42999999999998" fill="#f5f6f7" stroke="#f5f6f7" transform="matrix(0.1951,-0.9808,0.9808,0.1951,41.3642,678.4025)" style="opacity: 0.5;" stroke-width="3" opacity="0.5"></ellipse><ellipse cx="361" cy="387" rx="130" ry="183.29999999999998" fill="#f5f6f7" stroke="#f5f6f7" transform="matrix(0.3827,-0.9239,0.9239,0.3827,-134.6901,572.422)" style="opacity: 0.5;" stroke-width="3" opacity="0.5"></ellipse><ellipse cx="712" cy="415" rx="121" ry="170.60999999999999" fill="#f5f6f7" stroke="#f5f6f7" transform="matrix(0.5556,-0.8315,0.8315,0.5556,-28.6259,776.4447)" style="opacity: 0.5;" stroke-width="3" opacity="0.5"></ellipse><ellipse cx="650" cy="248" rx="130" ry="183.29999999999998" fill="#f5f6f7" stroke="#f5f6f7" transform="matrix(0.7071,-0.7071,0.7071,0.7071,15.0181,532.2569)" style="opacity: 0.5;" stroke-width="3" opacity="0.5"></ellipse><ellipse cx="578" cy="380" rx="126" ry="177.66" fill="#f5f6f7" stroke="#f5f6f7" transform="matrix(0.8315,-0.5556,0.5556,0.8315,-113.7061,385.1611)" style="opacity: 0.5;" stroke-width="3" opacity="0.5"></ellipse><ellipse cx="411" cy="287" rx="128" ry="180.48" fill="#f5f6f7" stroke="#f5f6f7" transform="matrix(0.9239,-0.3827,0.3827,0.9239,-78.5446,179.1295)" style="opacity: 0.5;" stroke-width="3" opacity="0.5"></ellipse><ellipse cx="400" cy="249" rx="125" ry="176.25" fill="#f5f6f7" stroke="#f5f6f7" transform="matrix(0.9808,-0.1951,0.1951,0.9808,-40.8916,82.8206)" style="opacity: 0.5;" stroke-width="3" opacity="0.5"></ellipse></svg>