<svg height="678" version="1.1" width="1148" xmlns="http://www.w3.org/2000/svg" style="overflow: hidden; position: relative;"><desc>Created with Raphaël 2.0.1</desc><defs></defs><rect x="0" y="0" width="1148" height="678" r="0" rx="0" ry="0" fill="#323251" stroke="none" style=""></rect><ellipse cx="405" cy="333" rx="123" ry="173.42999999999998" fill="#f5f6f7" stroke="#f5f6f7" transform="matrix(1,0,0,1,0,0)" style="opacity: 0.5;" stroke-width="3" opacity="0.5"></ellipse><ellipse cx="653" cy="350" rx="123" ry="173.42999999999998" fill="#f5f6f7" stroke="#f5f6f7" transform="matrix(0.9808,0.1951,-0.1951,0.9808,80.8288,-120.6688)" style="opacity: 0.5;" stroke-width="3" opacity="0.5"></ellipse><ellipse cx="771" cy="371" rx="121" ry="170.60999999999999" fill="#f5f6f7" stroke="#f5f6f7" transform="matrix(0.9239,0.3827,-0.3827,0.9239,200.6644,-266.8082)" style="opacity: 0.5;" stroke-width="3" opacity="0.5"></ellipse><ellipse cx="519" cy="268" rx="126" ry="177.66" fill="#f5f6f7" stroke="#f5f6f7" transform="matrix(0.8315,0.5556,-0.5556,0.8315,236.3601,-243.1748)" style="opacity: 0.5;" stroke-width="3" opacity="0.5"></ellipse><ellipse cx="436" cy="301" rx="121" ry="170.60999999999999" fill="#f5f6f7" stroke="#f5f6f7" transform="matrix(0.7071,0.7071,-0.7071,0.7071,340.5406,-220.1377)" style="opacity: 0.5;" stroke-width="3" opacity="0.5"></ellipse><ellipse cx="573" cy="346" rx="122" ry="172.01999999999998" fill="#f5f6f7" stroke="#f5f6f7" transform="matrix(0.5556,0.8315,-0.8315,0.5556,542.3467,-322.6594)" style="opacity: 0.5;" stroke-width="3" opacity="0.5"></ellipse><ellipse cx="551" cy="332" rx="125" ry="176.25" fill="#f5f6f7" stroke="#f5f6f7" transform="matrix(0.3827,0.9239,-0.9239,0.3827,646.8694,-304.1085)" style="opacity: 0.5;" stroke-width="3" opacity="0.5"></ellipse><ellipse cx="790" cy="355" rx="125" ry="176.25" fill="#f5f6f7" stroke="#f5f6f7" transform="matrix(0.1951,0.9808,-0.9808,0.1951,984.0574,-489.0774)" style="opacity: 0.5;" stroke-width="3" opacity="0.5"></ellipse><ellipse cx="677" cy="268" rx="126" ry="177.66" fill="#f5f6f7" stroke="#f5f6f7" transform="matrix(0,1,-1,0,945,-409)" style="opacity: 0.5;" stroke-width="3" opacity="0.5"></ellipse><ellipse cx="393" cy="261" rx="127" ry="179.07" fill="#f5f6f7" stroke="#f5f6f7" transform="matrix(-0.1951,0.9808,-0.9808,-0.1951,725.6555,-73.53)" style="opacity: 0.5;" stroke-width="3" opacity="0.5"></ellipse><ellipse cx="558" cy="291" rx="120" ry="169.2" fill="#f5f6f7" stroke="#f5f6f7" transform="matrix(-0.3827,0.9239,-0.9239,-0.3827,1040.3863,-113.1639)" style="opacity: 0.5;" stroke-width="3" opacity="0.5"></ellipse><ellipse cx="619" cy="310" rx="128" ry="180.48" fill="#f5f6f7" stroke="#f5f6f7" transform="matrix(-0.5556,0.8315,-0.8315,-0.5556,1220.6536,-32.4529)" style="opacity: 0.5;" stroke-width="3" opacity="0.5"></ellipse><ellipse cx="563" cy="386" rx="126" ry="177.66" fill="#f5f6f7" stroke="#f5f6f7" transform="matrix(-0.7071,0.7071,-0.7071,-0.7071,1234.0443,260.8421)" style="opacity: 0.5;" stroke-width="3" opacity="0.5"></ellipse><ellipse cx="543" cy="262" rx="127" ry="179.07" fill="#f5f6f7" stroke="#f5f6f7" transform="matrix(-0.8315,0.5556,-0.5556,-0.8315,1140.0474,178.1704)" style="opacity: 0.5;" stroke-width="3" opacity="0.5"></ellipse><ellipse cx="776" cy="329" rx="127" ry="179.07" fill="#f5f6f7" stroke="#f5f6f7" transform="matrix(-0.9239,0.3827,-0.3827,-0.9239,1618.8334,335.994)" style="opacity: 0.5;" stroke-width="3" opacity="0.5"></ellipse><ellipse cx="632" cy="428" rx="126" ry="177.66" fill="#f5f6f7" stroke="#f5f6f7" transform="matrix(-0.9808,0.1951,-0.1951,-0.9808,1335.355,724.479)" style="opacity: 0.5;" stroke-width="3" opacity="0.5"></ellipse><ellipse cx="464" cy="274" rx="126" ry="177.66" fill="#f5f6f7" stroke="#f5f6f7" transform="matrix(-1,0,0,-1,928,548)" style="opacity: 0.5;" stroke-width="3" opacity="0.5"></ellipse><ellipse cx="670" cy="372" rx="123" ry="173.42999999999998" fill="#f5f6f7" stroke="#f5f6f7" transform="matrix(-0.9808,-0.1951,0.1951,-0.9808,1254.5525,867.5626)" style="opacity: 0.5;" stroke-width="3" opacity="0.5"></ellipse><ellipse cx="594" cy="429" rx="129" ry="181.89" fill="#f5f6f7" stroke="#f5f6f7" transform="matrix(-0.9239,-0.3827,0.3827,-0.9239,978.6133,1052.6583)" style="opacity: 0.5;" stroke-width="3" opacity="0.5"></ellipse><ellipse cx="656" cy="315" rx="127" ry="179.07" fill="#f5f6f7" stroke="#f5f6f7" transform="matrix(-0.8315,-0.5556,0.5556,-0.8315,1026.4394,941.367)" style="opacity: 0.5;" stroke-width="3" opacity="0.5"></ellipse><ellipse cx="742" cy="430" rx="124" ry="174.84" fill="#f5f6f7" stroke="#f5f6f7" transform="matrix(-0.7071,-0.7071,0.7071,-0.7071,962.6173,1258.7291)" style="opacity: 0.5;" stroke-width="3" opacity="0.5"></ellipse><ellipse cx="330" cy="407" rx="130" ry="183.29999999999998" fill="#f5f6f7" stroke="#f5f6f7" transform="matrix(-0.5556,-0.8315,0.8315,-0.5556,174.93,907.5021)" style="opacity: 0.5;" stroke-width="3" opacity="0.5"></ellipse><ellipse cx="379" cy="295" rx="122" ry="172.01999999999998" fill="#f5f6f7" stroke="#f5f6f7" transform="matrix(-0.3827,-0.9239,0.9239,-0.3827,251.4926,758.042)" style="opacity: 0.5;" stroke-width="3" opacity="0.5"></ellipse><ellipse cx="474" cy="409" rx="129" ry="181.89" fill="#f5f6f7" stroke="#f5f6f7" transform="matrix(-0.1951,-0.9808,0.9808,-0.1951,165.3316,953.6842)" style="opacity: 0.5;" stroke-width="3" opacity="0.5"></ellipse><ellipse cx="738" cy="345" rx="126" ry="177.66" fill="#f5f6f7" stroke="#f5f6f7" transform="matrix(0,-1,1,0,393,1083)" style="opacity: 0.5;" stroke-width="3" opacity="0.5"></ellipse><ellipse cx="734" cy="295" rx="126" ry="177.66" fill="#f5f6f7" stroke="#f5f6f7" transform="matrix(0.1951,-0.9808,0.9808,0.1951,301.472,957.3448)" style="opacity: 0.5;" stroke-width="3" opacity="0.5"></ellipse><ellipse cx="477" cy="286" rx="127" ry="179.07" fill="#f5f6f7" stroke="#f5f6f7" transform="matrix(0.3827,-0.9239,0.9239,0.3827,30.2305,617.2431)" style="opacity: 0.5;" stroke-width="3" opacity="0.5"></ellipse><ellipse cx="394" cy="367" rx="122" ry="172.01999999999998" fill="#f5f6f7" stroke="#f5f6f7" transform="matrix(0.5556,-0.8315,0.8315,0.5556,-130.044,490.7048)" style="opacity: 0.5;" stroke-width="3" opacity="0.5"></ellipse><ellipse cx="755" cy="265" rx="130" ry="183.29999999999998" fill="#f5f6f7" stroke="#f5f6f7" transform="matrix(0.7071,-0.7071,0.7071,0.7071,33.7511,611.4823)" style="opacity: 0.5;" stroke-width="3" opacity="0.5"></ellipse><ellipse cx="775" cy="426" rx="126" ry="177.66" fill="#f5f6f7" stroke="#f5f6f7" transform="matrix(0.8315,-0.5556,0.5556,0.8315,-106.0619,502.3609)" style="opacity: 0.5;" stroke-width="3" opacity="0.5"></ellipse><ellipse cx="449" cy="288" rx="128" ry="180.48" fill="#f5f6f7" stroke="#f5f6f7" transform="matrix(0.9239,-0.3827,0.3827,0.9239,-76.0347,193.7476)" style="opacity: 0.5;" stroke-width="3" opacity="0.5"></ellipse><ellipse cx="554" cy="259" rx="126" ry="177.66" fill="#f5f6f7" stroke="#f5f6f7" transform="matrix(0.9808,-0.1951,0.1951,0.9808,-39.8834,113.0567)" style="opacity: 0.5;" stroke-width="3" opacity="0.5"></ellipse></svg>