<svg height="678" version="1.1" width="1148" xmlns="http://www.w3.org/2000/svg" style="overflow: hidden; position: relative;"><desc>Created with Raphaël 2.0.1</desc><defs></defs><rect x="0" y="0" width="1148" height="678" r="0" rx="0" ry="0" fill="#292948" stroke="none" style=""></rect><ellipse cx="484" cy="438" rx="126" ry="177.66" fill="#f5f6f7" stroke="#f5f6f7" transform="matrix(1,0,0,1,0,0)" style="opacity: 0.5;" stroke-width="3" opacity="0.5"></ellipse><ellipse cx="648" cy="282" rx="123" ry="173.42999999999998" fill="#f5f6f7" stroke="#f5f6f7" transform="matrix(0.9808,0.1951,-0.1951,0.9808,67.4666,-121)" style="opacity: 0.5;" stroke-width="3" opacity="0.5"></ellipse><ellipse cx="495" cy="391" rx="121" ry="170.60999999999999" fill="#f5f6f7" stroke="#f5f6f7" transform="matrix(0.9239,0.3827,-0.3827,0.9239,187.3089,-159.6652)" style="opacity: 0.5;" stroke-width="3" opacity="0.5"></ellipse><ellipse cx="608" cy="311" rx="130" ry="183.29999999999998" fill="#f5f6f7" stroke="#f5f6f7" transform="matrix(0.8315,0.5556,-0.5556,0.8315,275.2488,-285.3738)" style="opacity: 0.5;" stroke-width="3" opacity="0.5"></ellipse><ellipse cx="325" cy="393" rx="120" ry="169.2" fill="#f5f6f7" stroke="#f5f6f7" transform="matrix(0.7071,0.7071,-0.7071,0.7071,373.0833,-114.7027)" style="opacity: 0.5;" stroke-width="3" opacity="0.5"></ellipse><ellipse cx="682" cy="270" rx="129" ry="181.89" fill="#f5f6f7" stroke="#f5f6f7" transform="matrix(0.5556,0.8315,-0.8315,0.5556,527.5979,-447.0662)" style="opacity: 0.5;" stroke-width="3" opacity="0.5"></ellipse><ellipse cx="428" cy="329" rx="120" ry="169.2" fill="#f5f6f7" stroke="#f5f6f7" transform="matrix(0.3827,0.9239,-0.9239,0.3827,568.1679,-192.3233)" style="opacity: 0.5;" stroke-width="3" opacity="0.5"></ellipse><ellipse cx="440" cy="250" rx="128" ry="180.48" fill="#f5f6f7" stroke="#f5f6f7" transform="matrix(0.1951,0.9808,-0.9808,0.1951,599.3566,-230.3181)" style="opacity: 0.5;" stroke-width="3" opacity="0.5"></ellipse><ellipse cx="665" cy="327" rx="121" ry="170.60999999999999" fill="#f5f6f7" stroke="#f5f6f7" transform="matrix(0,1,-1,0,992,-338)" style="opacity: 0.5;" stroke-width="3" opacity="0.5"></ellipse><ellipse cx="571" cy="281" rx="122" ry="172.01999999999998" fill="#f5f6f7" stroke="#f5f6f7" transform="matrix(-0.1951,0.9808,-0.9808,-0.1951,957.9972,-224.208)" style="opacity: 0.5;" stroke-width="3" opacity="0.5"></ellipse><ellipse cx="531" cy="426" rx="126" ry="177.66" fill="#f5f6f7" stroke="#f5f6f7" transform="matrix(-0.3827,0.9239,-0.9239,-0.3827,1127.7776,98.4431)" style="opacity: 0.5;" stroke-width="3" opacity="0.5"></ellipse><ellipse cx="675" cy="339" rx="121" ry="170.60999999999999" fill="#f5f6f7" stroke="#f5f6f7" transform="matrix(-0.5556,0.8315,-0.8315,-0.5556,1331.8781,-33.9037)" style="opacity: 0.5;" stroke-width="3" opacity="0.5"></ellipse><ellipse cx="383" cy="365" rx="122" ry="172.01999999999998" fill="#f5f6f7" stroke="#f5f6f7" transform="matrix(-0.7071,0.7071,-0.7071,-0.7071,911.9159,352.2721)" style="opacity: 0.5;" stroke-width="3" opacity="0.5"></ellipse><ellipse cx="790" cy="435" rx="125" ry="176.25" fill="#f5f6f7" stroke="#f5f6f7" transform="matrix(-0.8315,0.5556,-0.5556,-0.8315,1688.534,357.7888)" style="opacity: 0.5;" stroke-width="3" opacity="0.5"></ellipse><ellipse cx="335" cy="256" rx="127" ry="179.07" fill="#f5f6f7" stroke="#f5f6f7" transform="matrix(-0.9239,0.3827,-0.3827,-0.9239,742.4666,364.3142)" style="opacity: 0.5;" stroke-width="3" opacity="0.5"></ellipse><ellipse cx="614" cy="386" rx="126" ry="177.66" fill="#f5f6f7" stroke="#f5f6f7" transform="matrix(-0.9808,0.1951,-0.1951,-0.9808,1291.507,644.7977)" style="opacity: 0.5;" stroke-width="3" opacity="0.5"></ellipse><ellipse cx="718" cy="392" rx="120" ry="169.2" fill="#f5f6f7" stroke="#f5f6f7" transform="matrix(-1,0,0,-1,1436,784)" style="opacity: 0.5;" stroke-width="3" opacity="0.5"></ellipse><ellipse cx="643" cy="248" rx="123" ry="173.42999999999998" fill="#f5f6f7" stroke="#f5f6f7" transform="matrix(-0.9808,-0.1951,0.1951,-0.9808,1225.2625,616.6778)" style="opacity: 0.5;" stroke-width="3" opacity="0.5"></ellipse><ellipse cx="530" cy="408" rx="125" ry="176.25" fill="#f5f6f7" stroke="#f5f6f7" transform="matrix(-0.9239,-0.3827,0.3827,-0.9239,863.5213,987.7651)" style="opacity: 0.5;" stroke-width="3" opacity="0.5"></ellipse><ellipse cx="672" cy="319" rx="130" ry="183.29999999999998" fill="#f5f6f7" stroke="#f5f6f7" transform="matrix(-0.8315,-0.5556,0.5556,-0.8315,1053.5207,957.582)" style="opacity: 0.5;" stroke-width="3" opacity="0.5"></ellipse><ellipse cx="528" cy="281" rx="129" ry="181.89" fill="#f5f6f7" stroke="#f5f6f7" transform="matrix(-0.7071,-0.7071,0.7071,-0.7071,702.6554,853.0494)" style="opacity: 0.5;" stroke-width="3" opacity="0.5"></ellipse><ellipse cx="707" cy="243" rx="120" ry="169.2" fill="#f5f6f7" stroke="#f5f6f7" transform="matrix(-0.5556,-0.8315,0.8315,-0.5556,897.741,965.8526)" style="opacity: 0.5;" stroke-width="3" opacity="0.5"></ellipse><ellipse cx="683" cy="326" rx="120" ry="169.2" fill="#f5f6f7" stroke="#f5f6f7" transform="matrix(-0.3827,-0.9239,0.9239,-0.3827,643.1881,1081.7645)" style="opacity: 0.5;" stroke-width="3" opacity="0.5"></ellipse><ellipse cx="478" cy="295" rx="126" ry="177.66" fill="#f5f6f7" stroke="#f5f6f7" transform="matrix(-0.1951,-0.9808,0.9808,-0.1951,281.9215,821.367)" style="opacity: 0.5;" stroke-width="3" opacity="0.5"></ellipse><ellipse cx="662" cy="310" rx="121" ry="170.60999999999999" fill="#f5f6f7" stroke="#f5f6f7" transform="matrix(0,-1,1,0,352,972)" style="opacity: 0.5;" stroke-width="3" opacity="0.5"></ellipse><ellipse cx="625" cy="296" rx="129" ry="181.89" fill="#f5f6f7" stroke="#f5f6f7" transform="matrix(0.1951,-0.9808,0.9808,0.1951,212.7561,851.2441)" style="opacity: 0.5;" stroke-width="3" opacity="0.5"></ellipse><ellipse cx="818" cy="397" rx="127" ry="179.07" fill="#f5f6f7" stroke="#f5f6f7" transform="matrix(0.3827,-0.9239,0.9239,0.3827,138.1848,1000.8081)" style="opacity: 0.5;" stroke-width="3" opacity="0.5"></ellipse><ellipse cx="495" cy="252" rx="129" ry="181.89" fill="#f5f6f7" stroke="#f5f6f7" transform="matrix(0.5556,-0.8315,0.8315,0.5556,10.4624,523.5738)" style="opacity: 0.5;" stroke-width="3" opacity="0.5"></ellipse><ellipse cx="553" cy="303" rx="125" ry="176.25" fill="#f5f6f7" stroke="#f5f6f7" transform="matrix(0.7071,-0.7071,0.7071,0.7071,-52.2834,479.7767)" style="opacity: 0.5;" stroke-width="3" opacity="0.5"></ellipse><ellipse cx="720" cy="340" rx="123" ry="173.42999999999998" fill="#f5f6f7" stroke="#f5f6f7" transform="matrix(0.8315,-0.5556,0.5556,0.8315,-67.552,457.3109)" style="opacity: 0.5;" stroke-width="3" opacity="0.5"></ellipse><ellipse cx="813" cy="411" rx="130" ry="183.29999999999998" fill="#f5f6f7" stroke="#f5f6f7" transform="matrix(0.9239,-0.3827,0.3827,0.9239,-95.397,342.4071)" style="opacity: 0.5;" stroke-width="3" opacity="0.5"></ellipse><ellipse cx="392" cy="314" rx="126" ry="177.66" fill="#f5f6f7" stroke="#f5f6f7" transform="matrix(0.9808,-0.1951,0.1951,0.9808,-53.7262,82.5088)" style="opacity: 0.5;" stroke-width="3" opacity="0.5"></ellipse></svg>