<svg height="678" version="1.1" width="1148" xmlns="http://www.w3.org/2000/svg" style="overflow: hidden; position: relative;"><desc>Created with Raphaël 2.0.1</desc><defs></defs><rect x="0" y="0" width="1148" height="678" r="0" rx="0" ry="0" fill="#e8e8eb" stroke="none" style=""></rect><ellipse cx="699" cy="367" rx="126" ry="177.66" fill="#f5f6f7" stroke="#f5f6f7" transform="matrix(1,0,0,1,0,0)" style="opacity: 0.5;" stroke-width="3" opacity="0.5"></ellipse><ellipse cx="819" cy="390" rx="126" ry="177.66" fill="#f5f6f7" stroke="#f5f6f7" transform="matrix(0.9808,0.1951,-0.1951,0.9808,91.8221,-152.2852)" style="opacity: 0.5;" stroke-width="3" opacity="0.5"></ellipse><ellipse cx="504" cy="335" rx="130" ry="183.29999999999998" fill="#f5f6f7" stroke="#f5f6f7" transform="matrix(0.9239,0.3827,-0.3827,0.9239,166.5637,-167.3721)" style="opacity: 0.5;" stroke-width="3" opacity="0.5"></ellipse><ellipse cx="665" cy="332" rx="123" ry="173.42999999999998" fill="#f5f6f7" stroke="#f5f6f7" transform="matrix(0.8315,0.5556,-0.5556,0.8315,296.522,-313.5021)" style="opacity: 0.5;" stroke-width="3" opacity="0.5"></ellipse><ellipse cx="425" cy="247" rx="129" ry="181.89" fill="#f5f6f7" stroke="#f5f6f7" transform="matrix(0.7071,0.7071,-0.7071,0.7071,299.135,-228.1758)" style="opacity: 0.5;" stroke-width="3" opacity="0.5"></ellipse><ellipse cx="557" cy="263" rx="120" ry="169.2" fill="#f5f6f7" stroke="#f5f6f7" transform="matrix(0.5556,0.8315,-0.8315,0.5556,466.2239,-346.2435)" style="opacity: 0.5;" stroke-width="3" opacity="0.5"></ellipse><ellipse cx="541" cy="434" rx="125" ry="176.25" fill="#f5f6f7" stroke="#f5f6f7" transform="matrix(0.3827,0.9239,-0.9239,0.3827,734.932,-231.9034)" style="opacity: 0.5;" stroke-width="3" opacity="0.5"></ellipse><ellipse cx="796" cy="288" rx="126" ry="177.66" fill="#f5f6f7" stroke="#f5f6f7" transform="matrix(0.1951,0.9808,-0.9808,0.1951,923.1743,-548.8911)" style="opacity: 0.5;" stroke-width="3" opacity="0.5"></ellipse><ellipse cx="619" cy="304" rx="122" ry="172.01999999999998" fill="#f5f6f7" stroke="#f5f6f7" transform="matrix(0,1,-1,0,923,-315)" style="opacity: 0.5;" stroke-width="3" opacity="0.5"></ellipse><ellipse cx="350" cy="283" rx="125" ry="176.25" fill="#f5f6f7" stroke="#f5f6f7" transform="matrix(-0.1951,0.9808,-0.9808,-0.1951,695.8438,-5.0643)" style="opacity: 0.5;" stroke-width="3" opacity="0.5"></ellipse><ellipse cx="646" cy="390" rx="125" ry="176.25" fill="#f5f6f7" stroke="#f5f6f7" transform="matrix(-0.3827,0.9239,-0.9239,-0.3827,1253.5265,-57.5796)" style="opacity: 0.5;" stroke-width="3" opacity="0.5"></ellipse><ellipse cx="665" cy="436" rx="129" ry="181.89" fill="#f5f6f7" stroke="#f5f6f7" transform="matrix(-0.5556,0.8315,-0.8315,-0.5556,1396.975,125.3013)" style="opacity: 0.5;" stroke-width="3" opacity="0.5"></ellipse><ellipse cx="614" cy="328" rx="120" ry="169.2" fill="#f5f6f7" stroke="#f5f6f7" transform="matrix(-0.7071,0.7071,-0.7071,-0.7071,1280.0946,125.7675)" style="opacity: 0.5;" stroke-width="3" opacity="0.5"></ellipse><ellipse cx="790" cy="249" rx="121" ry="170.60999999999999" fill="#f5f6f7" stroke="#f5f6f7" transform="matrix(-0.8315,0.5556,-0.5556,-0.8315,1585.198,17.1354)" style="opacity: 0.5;" stroke-width="3" opacity="0.5"></ellipse><ellipse cx="448" cy="288" rx="124" ry="174.84" fill="#f5f6f7" stroke="#f5f6f7" transform="matrix(-0.9239,0.3827,-0.3827,-0.9239,972.1109,382.6351)" style="opacity: 0.5;" stroke-width="3" opacity="0.5"></ellipse><ellipse cx="760" cy="277" rx="127" ry="179.07" fill="#f5f6f7" stroke="#f5f6f7" transform="matrix(-0.9808,0.1951,-0.1951,-0.9808,1559.4368,400.4089)" style="opacity: 0.5;" stroke-width="3" opacity="0.5"></ellipse><ellipse cx="656" cy="344" rx="124" ry="174.84" fill="#f5f6f7" stroke="#f5f6f7" transform="matrix(-1,0,0,-1,1312,688)" style="opacity: 0.5;" stroke-width="3" opacity="0.5"></ellipse><ellipse cx="799" cy="417" rx="130" ry="183.29999999999998" fill="#f5f6f7" stroke="#f5f6f7" transform="matrix(-0.9808,-0.1951,0.1951,-0.9808,1501.2948,981.8646)" style="opacity: 0.5;" stroke-width="3" opacity="0.5"></ellipse><ellipse cx="623" cy="368" rx="123" ry="173.42999999999998" fill="#f5f6f7" stroke="#f5f6f7" transform="matrix(-0.9239,-0.3827,0.3827,-0.9239,1057.7494,946.3994)" style="opacity: 0.5;" stroke-width="3" opacity="0.5"></ellipse><ellipse cx="808" cy="285" rx="128" ry="180.48" fill="#f5f6f7" stroke="#f5f6f7" transform="matrix(-0.8315,-0.5556,0.5556,-0.8315,1321.4899,970.8696)" style="opacity: 0.5;" stroke-width="3" opacity="0.5"></ellipse><ellipse cx="554" cy="259" rx="125" ry="176.25" fill="#f5f6f7" stroke="#f5f6f7" transform="matrix(-0.7071,-0.7071,0.7071,-0.7071,762.5965,833.8778)" style="opacity: 0.5;" stroke-width="3" opacity="0.5"></ellipse><ellipse cx="637" cy="320" rx="123" ry="173.42999999999998" fill="#f5f6f7" stroke="#f5f6f7" transform="matrix(-0.5556,-0.8315,0.8315,-0.5556,724.828,1027.4286)" style="opacity: 0.5;" stroke-width="3" opacity="0.5"></ellipse><ellipse cx="766" cy="276" rx="120" ry="169.2" fill="#f5f6f7" stroke="#f5f6f7" transform="matrix(-0.3827,-0.9239,0.9239,-0.3827,804.1448,1089.3123)" style="opacity: 0.5;" stroke-width="3" opacity="0.5"></ellipse><ellipse cx="674" cy="324" rx="121" ry="170.60999999999999" fill="#f5f6f7" stroke="#f5f6f7" transform="matrix(-0.1951,-0.9808,0.9808,-0.1951,487.7164,1048.2585)" style="opacity: 0.5;" stroke-width="3" opacity="0.5"></ellipse><ellipse cx="690" cy="428" rx="124" ry="174.84" fill="#f5f6f7" stroke="#f5f6f7" transform="matrix(0,-1,1,0,262,1118)" style="opacity: 0.5;" stroke-width="3" opacity="0.5"></ellipse><ellipse cx="324" cy="310" rx="123" ry="173.42999999999998" fill="#f5f6f7" stroke="#f5f6f7" transform="matrix(0.1951,-0.9808,0.9808,0.1951,-43.2527,567.2964)" style="opacity: 0.5;" stroke-width="3" opacity="0.5"></ellipse><ellipse cx="620" cy="334" rx="125" ry="176.25" fill="#f5f6f7" stroke="#f5f6f7" transform="matrix(0.3827,-0.9239,0.9239,0.3827,74.1605,778.989)" style="opacity: 0.5;" stroke-width="3" opacity="0.5"></ellipse><ellipse cx="513" cy="261" rx="129" ry="181.89" fill="#f5f6f7" stroke="#f5f6f7" transform="matrix(0.5556,-0.8315,0.8315,0.5556,10.9789,542.5401)" style="opacity: 0.5;" stroke-width="3" opacity="0.5"></ellipse><ellipse cx="514" cy="270" rx="120" ry="169.2" fill="#f5f6f7" stroke="#f5f6f7" transform="matrix(0.7071,-0.7071,0.7071,0.7071,-40.3717,442.5341)" style="opacity: 0.5;" stroke-width="3" opacity="0.5"></ellipse><ellipse cx="582" cy="287" rx="130" ry="183.29999999999998" fill="#f5f6f7" stroke="#f5f6f7" transform="matrix(0.8315,-0.5556,0.5556,0.8315,-61.364,371.7101)" style="opacity: 0.5;" stroke-width="3" opacity="0.5"></ellipse><ellipse cx="603" cy="323" rx="130" ry="183.29999999999998" fill="#f5f6f7" stroke="#f5f6f7" transform="matrix(0.9239,-0.3827,0.3827,0.9239,-77.7061,255.345)" style="opacity: 0.5;" stroke-width="3" opacity="0.5"></ellipse><ellipse cx="328" cy="278" rx="121" ry="170.60999999999999" fill="#f5f6f7" stroke="#f5f6f7" transform="matrix(0.9808,-0.1951,0.1951,0.9808,-47.9327,69.3313)" style="opacity: 0.5;" stroke-width="3" opacity="0.5"></ellipse></svg>