<svg height="678" version="1.1" width="1148" xmlns="http://www.w3.org/2000/svg" style="overflow: hidden; position: relative;"><desc>Created with Raphaël 2.0.1</desc><defs></defs><rect x="0" y="0" width="1148" height="678" r="0" rx="0" ry="0" fill="#f5f6f7" stroke="none" style=""></rect><ellipse cx="334" cy="414" rx="122" ry="172.01999999999998" fill="#f5f6f7" stroke="#f5f6f7" transform="matrix(1,0,0,1,0,0)" style="opacity: 0.5;" stroke-width="3" opacity="0.5"></ellipse><ellipse cx="463" cy="296" rx="130" ry="183.29999999999998" fill="#f5f6f7" stroke="#f5f6f7" transform="matrix(0.9808,0.1951,-0.1951,0.9808,66.6432,-84.6393)" style="opacity: 0.5;" stroke-width="3" opacity="0.5"></ellipse><ellipse cx="680" cy="434" rx="122" ry="172.01999999999998" fill="#f5f6f7" stroke="#f5f6f7" transform="matrix(0.9239,0.3827,-0.3827,0.9239,217.8465,-227.1885)" style="opacity: 0.5;" stroke-width="3" opacity="0.5"></ellipse><ellipse cx="597" cy="400" rx="123" ry="173.42999999999998" fill="#f5f6f7" stroke="#f5f6f7" transform="matrix(0.8315,0.5556,-0.5556,0.8315,322.8407,-264.2633)" style="opacity: 0.5;" stroke-width="3" opacity="0.5"></ellipse><ellipse cx="441" cy="337" rx="130" ry="183.29999999999998" fill="#f5f6f7" stroke="#f5f6f7" transform="matrix(0.7071,0.7071,-0.7071,0.7071,367.4609,-213.1291)" style="opacity: 0.5;" stroke-width="3" opacity="0.5"></ellipse><ellipse cx="561" cy="295" rx="130" ry="183.29999999999998" fill="#f5f6f7" stroke="#f5f6f7" transform="matrix(0.5556,0.8315,-0.8315,0.5556,494.6086,-335.3477)" style="opacity: 0.5;" stroke-width="3" opacity="0.5"></ellipse><ellipse cx="740" cy="276" rx="128" ry="180.48" fill="#f5f6f7" stroke="#f5f6f7" transform="matrix(0.3827,0.9239,-0.9239,0.3827,711.805,-513.2915)" style="opacity: 0.5;" stroke-width="3" opacity="0.5"></ellipse><ellipse cx="429" cy="272" rx="122" ry="172.01999999999998" fill="#f5f6f7" stroke="#f5f6f7" transform="matrix(0.1951,0.9808,-0.9808,0.1951,612.0798,-201.8215)" style="opacity: 0.5;" stroke-width="3" opacity="0.5"></ellipse><ellipse cx="594" cy="400" rx="129" ry="181.89" fill="#f5f6f7" stroke="#f5f6f7" transform="matrix(0,1,-1,0,994,-194)" style="opacity: 0.5;" stroke-width="3" opacity="0.5"></ellipse><ellipse cx="687" cy="433" rx="123" ry="173.42999999999998" fill="#f5f6f7" stroke="#f5f6f7" transform="matrix(-0.1951,0.9808,-0.9808,-0.1951,1245.7071,-156.3254)" style="opacity: 0.5;" stroke-width="3" opacity="0.5"></ellipse><ellipse cx="422" cy="261" rx="122" ry="172.01999999999998" fill="#f5f6f7" stroke="#f5f6f7" transform="matrix(-0.3827,0.9239,-0.9239,-0.3827,824.625,-28.9968)" style="opacity: 0.5;" stroke-width="3" opacity="0.5"></ellipse><ellipse cx="564" cy="289" rx="121" ry="170.60999999999999" fill="#f5f6f7" stroke="#f5f6f7" transform="matrix(-0.5556,0.8315,-0.8315,-0.5556,1117.6363,-19.3891)" style="opacity: 0.5;" stroke-width="3" opacity="0.5"></ellipse><ellipse cx="578" cy="283" rx="124" ry="174.84" fill="#f5f6f7" stroke="#f5f6f7" transform="matrix(-0.7071,0.7071,-0.7071,-0.7071,1186.8189,74.4035)" style="opacity: 0.5;" stroke-width="3" opacity="0.5"></ellipse><ellipse cx="788" cy="358" rx="120" ry="169.2" fill="#f5f6f7" stroke="#f5f6f7" transform="matrix(-0.8315,0.5556,-0.5556,-0.8315,1642.0922,217.8768)" style="opacity: 0.5;" stroke-width="3" opacity="0.5"></ellipse><ellipse cx="730" cy="310" rx="127" ry="179.07" fill="#f5f6f7" stroke="#f5f6f7" transform="matrix(-0.9239,0.3827,-0.3827,-0.9239,1523.0639,317.0437)" style="opacity: 0.5;" stroke-width="3" opacity="0.5"></ellipse><ellipse cx="544" cy="271" rx="127" ry="179.07" fill="#f5f6f7" stroke="#f5f6f7" transform="matrix(-0.9808,0.1951,-0.1951,-0.9808,1130.4167,430.6637)" style="opacity: 0.5;" stroke-width="3" opacity="0.5"></ellipse><ellipse cx="818" cy="333" rx="126" ry="177.66" fill="#f5f6f7" stroke="#f5f6f7" transform="matrix(-1,0,0,-1,1636,666)" style="opacity: 0.5;" stroke-width="3" opacity="0.5"></ellipse><ellipse cx="321" cy="242" rx="122" ry="172.01999999999998" fill="#f5f6f7" stroke="#f5f6f7" transform="matrix(-0.9808,-0.1951,0.1951,-0.9808,588.6202,541.974)" style="opacity: 0.5;" stroke-width="3" opacity="0.5"></ellipse><ellipse cx="450" cy="383" rx="121" ry="170.60999999999999" fill="#f5f6f7" stroke="#f5f6f7" transform="matrix(-0.9239,-0.3827,0.3827,-0.9239,719.178,909.0534)" style="opacity: 0.5;" stroke-width="3" opacity="0.5"></ellipse><ellipse cx="581" cy="368" rx="124" ry="174.84" fill="#f5f6f7" stroke="#f5f6f7" transform="matrix(-0.8315,-0.5556,0.5556,-0.8315,859.634,996.7671)" style="opacity: 0.5;" stroke-width="3" opacity="0.5"></ellipse><ellipse cx="620" cy="269" rx="124" ry="174.84" fill="#f5f6f7" stroke="#f5f6f7" transform="matrix(-0.7071,-0.7071,0.7071,-0.7071,868.1945,897.6179)" style="opacity: 0.5;" stroke-width="3" opacity="0.5"></ellipse><ellipse cx="390" cy="420" rx="130" ry="183.29999999999998" fill="#f5f6f7" stroke="#f5f6f7" transform="matrix(-0.5556,-0.8315,0.8315,-0.5556,257.4552,977.6126)" style="opacity: 0.5;" stroke-width="3" opacity="0.5"></ellipse><ellipse cx="817" cy="278" rx="130" ry="183.29999999999998" fill="#f5f6f7" stroke="#f5f6f7" transform="matrix(-0.3827,-0.9239,0.9239,-0.3827,872.8139,1139.1956)" style="opacity: 0.5;" stroke-width="3" opacity="0.5"></ellipse><ellipse cx="533" cy="335" rx="129" ry="181.89" fill="#f5f6f7" stroke="#f5f6f7" transform="matrix(-0.1951,-0.9808,0.9808,-0.1951,308.4201,923.1138)" style="opacity: 0.5;" stroke-width="3" opacity="0.5"></ellipse><ellipse cx="543" cy="362" rx="121" ry="170.60999999999999" fill="#f5f6f7" stroke="#f5f6f7" transform="matrix(0,-1,1,0,181,905)" style="opacity: 0.5;" stroke-width="3" opacity="0.5"></ellipse><ellipse cx="476" cy="392" rx="126" ry="177.66" fill="#f5f6f7" stroke="#f5f6f7" transform="matrix(0.1951,-0.9808,0.9808,0.1951,-1.3308,782.3784)" style="opacity: 0.5;" stroke-width="3" opacity="0.5"></ellipse><ellipse cx="775" cy="345" rx="125" ry="176.25" fill="#f5f6f7" stroke="#f5f6f7" transform="matrix(0.3827,-0.9239,0.9239,0.3827,159.6819,928.9809)" style="opacity: 0.5;" stroke-width="3" opacity="0.5"></ellipse><ellipse cx="575" cy="312" rx="121" ry="170.60999999999999" fill="#f5f6f7" stroke="#f5f6f7" transform="matrix(0.5556,-0.8315,0.8315,0.5556,-3.8714,616.7571)" style="opacity: 0.5;" stroke-width="3" opacity="0.5"></ellipse><ellipse cx="702" cy="412" rx="121" ry="170.60999999999999" fill="#f5f6f7" stroke="#f5f6f7" transform="matrix(0.7071,-0.7071,0.7071,0.7071,-85.717,617.061)" style="opacity: 0.5;" stroke-width="3" opacity="0.5"></ellipse><ellipse cx="408" cy="422" rx="123" ry="173.42999999999998" fill="#f5f6f7" stroke="#f5f6f7" transform="matrix(0.8315,-0.5556,0.5556,0.8315,-165.6902,297.7925)" style="opacity: 0.5;" stroke-width="3" opacity="0.5"></ellipse><ellipse cx="489" cy="252" rx="130" ry="183.29999999999998" fill="#f5f6f7" stroke="#f5f6f7" transform="matrix(0.9239,-0.3827,0.3827,0.9239,-59.2133,206.3146)" style="opacity: 0.5;" stroke-width="3" opacity="0.5"></ellipse><ellipse cx="492" cy="367" rx="122" ry="172.01999999999998" fill="#f5f6f7" stroke="#f5f6f7" transform="matrix(0.9808,-0.1951,0.1951,0.9808,-62.1445,103.0362)" style="opacity: 0.5;" stroke-width="3" opacity="0.5"></ellipse></svg>