<svg height="678" version="1.1" width="1148" xmlns="http://www.w3.org/2000/svg" style="overflow: hidden; position: relative;"><desc>Created with Raphaël 2.0.1</desc><defs></defs><rect x="0" y="0" width="1148" height="678" r="0" rx="0" ry="0" fill="#d4d4da" stroke="none" style=""></rect><ellipse cx="423" cy="330" rx="122" ry="172.01999999999998" fill="#f5f6f7" stroke="#f5f6f7" transform="matrix(1,0,0,1,0,0)" style="opacity: 0.5;" stroke-width="3" opacity="0.5"></ellipse><ellipse cx="618" cy="296" rx="121" ry="170.60999999999999" fill="#f5f6f7" stroke="#f5f6f7" transform="matrix(0.9808,0.1951,-0.1951,0.9808,69.6214,-114.8783)" style="opacity: 0.5;" stroke-width="3" opacity="0.5"></ellipse><ellipse cx="353" cy="269" rx="129" ry="181.89" fill="#f5f6f7" stroke="#f5f6f7" transform="matrix(0.9239,0.3827,-0.3827,0.9239,129.8124,-114.6108)" style="opacity: 0.5;" stroke-width="3" opacity="0.5"></ellipse><ellipse cx="729" cy="252" rx="122" ry="172.01999999999998" fill="#f5f6f7" stroke="#f5f6f7" transform="matrix(0.8315,0.5556,-0.5556,0.8315,262.8624,-362.541)" style="opacity: 0.5;" stroke-width="3" opacity="0.5"></ellipse><ellipse cx="712" cy="280" rx="130" ry="183.29999999999998" fill="#f5f6f7" stroke="#f5f6f7" transform="matrix(0.7071,0.7071,-0.7071,0.7071,406.5299,-421.4499)" style="opacity: 0.5;" stroke-width="3" opacity="0.5"></ellipse><ellipse cx="554" cy="377" rx="123" ry="173.42999999999998" fill="#f5f6f7" stroke="#f5f6f7" transform="matrix(0.5556,0.8315,-0.8315,0.5556,559.6781,-293.0841)" style="opacity: 0.5;" stroke-width="3" opacity="0.5"></ellipse><ellipse cx="491" cy="344" rx="127" ry="179.07" fill="#f5f6f7" stroke="#f5f6f7" transform="matrix(0.3827,0.9239,-0.9239,0.3827,620.917,-241.268)" style="opacity: 0.5;" stroke-width="3" opacity="0.5"></ellipse><ellipse cx="785" cy="414" rx="127" ry="179.07" fill="#f5f6f7" stroke="#f5f6f7" transform="matrix(0.1951,0.9808,-0.9808,0.1951,1037.8992,-436.6838)" style="opacity: 0.5;" stroke-width="3" opacity="0.5"></ellipse><ellipse cx="796" cy="391" rx="129" ry="181.89" fill="#f5f6f7" stroke="#f5f6f7" transform="matrix(0,1,-1,0,1187,-405)" style="opacity: 0.5;" stroke-width="3" opacity="0.5"></ellipse><ellipse cx="410" cy="360" rx="130" ry="183.29999999999998" fill="#f5f6f7" stroke="#f5f6f7" transform="matrix(-0.1951,0.9808,-0.9808,-0.1951,843.0697,28.1106)" style="opacity: 0.5;" stroke-width="3" opacity="0.5"></ellipse><ellipse cx="813" cy="284" rx="127" ry="179.07" fill="#f5f6f7" stroke="#f5f6f7" transform="matrix(-0.3827,0.9239,-0.9239,-0.3827,1386.5034,-358.432)" style="opacity: 0.5;" stroke-width="3" opacity="0.5"></ellipse><ellipse cx="664" cy="425" rx="124" ry="174.84" fill="#f5f6f7" stroke="#f5f6f7" transform="matrix(-0.5556,0.8315,-0.8315,-0.5556,1386.2732,109.0215)" style="opacity: 0.5;" stroke-width="3" opacity="0.5"></ellipse><ellipse cx="826" cy="327" rx="122" ry="172.01999999999998" fill="#f5f6f7" stroke="#f5f6f7" transform="matrix(-0.7071,0.7071,-0.7071,-0.7071,1641.2941,-25.8463)" style="opacity: 0.5;" stroke-width="3" opacity="0.5"></ellipse><ellipse cx="553" cy="290" rx="121" ry="170.60999999999999" fill="#f5f6f7" stroke="#f5f6f7" transform="matrix(-0.8315,0.5556,-0.5556,-0.8315,1173.9181,223.8958)" style="opacity: 0.5;" stroke-width="3" opacity="0.5"></ellipse><ellipse cx="362" cy="359" rx="124" ry="174.84" fill="#f5f6f7" stroke="#f5f6f7" transform="matrix(-0.9239,0.3827,-0.3827,-0.9239,833.8277,552.1414)" style="opacity: 0.5;" stroke-width="3" opacity="0.5"></ellipse><ellipse cx="357" cy="308" rx="120" ry="169.2" fill="#f5f6f7" stroke="#f5f6f7" transform="matrix(-0.9808,0.1951,-0.1951,-0.9808,767.2282,540.4346)" style="opacity: 0.5;" stroke-width="3" opacity="0.5"></ellipse><ellipse cx="536" cy="331" rx="129" ry="181.89" fill="#f5f6f7" stroke="#f5f6f7" transform="matrix(-1,0,0,-1,1072,662)" style="opacity: 0.5;" stroke-width="3" opacity="0.5"></ellipse><ellipse cx="439" cy="272" rx="123" ry="173.42999999999998" fill="#f5f6f7" stroke="#f5f6f7" transform="matrix(-0.9808,-0.1951,0.1951,-0.9808,816.5002,624.4182)" style="opacity: 0.5;" stroke-width="3" opacity="0.5"></ellipse><ellipse cx="749" cy="275" rx="128" ry="180.48" fill="#f5f6f7" stroke="#f5f6f7" transform="matrix(-0.9239,-0.3827,0.3827,-0.9239,1335.7478,815.6968)" style="opacity: 0.5;" stroke-width="3" opacity="0.5"></ellipse><ellipse cx="727" cy="283" rx="128" ry="180.48" fill="#f5f6f7" stroke="#f5f6f7" transform="matrix(-0.8315,-0.5556,0.5556,-0.8315,1174.252,922.2055)" style="opacity: 0.5;" stroke-width="3" opacity="0.5"></ellipse><ellipse cx="733" cy="305" rx="126" ry="177.66" fill="#f5f6f7" stroke="#f5f6f7" transform="matrix(-0.7071,-0.7071,0.7071,-0.7071,1035.6417,1038.9768)" style="opacity: 0.5;" stroke-width="3" opacity="0.5"></ellipse><ellipse cx="389" cy="244" rx="123" ry="173.42999999999998" fill="#f5f6f7" stroke="#f5f6f7" transform="matrix(-0.5556,-0.8315,0.8315,-0.5556,402.2382,703.0008)" style="opacity: 0.5;" stroke-width="3" opacity="0.5"></ellipse><ellipse cx="434" cy="381" rx="120" ry="169.2" fill="#f5f6f7" stroke="#f5f6f7" transform="matrix(-0.3827,-0.9239,0.9239,-0.3827,248.0865,927.7661)" style="opacity: 0.5;" stroke-width="3" opacity="0.5"></ellipse><ellipse cx="794" cy="287" rx="126" ry="177.66" fill="#f5f6f7" stroke="#f5f6f7" transform="matrix(-0.1951,-0.9808,0.9808,-0.1951,667.4163,1121.7344)" style="opacity: 0.5;" stroke-width="3" opacity="0.5"></ellipse><ellipse cx="820" cy="261" rx="121" ry="170.60999999999999" fill="#f5f6f7" stroke="#f5f6f7" transform="matrix(0,-1,1,0,559,1081)" style="opacity: 0.5;" stroke-width="3" opacity="0.5"></ellipse><ellipse cx="358" cy="263" rx="120" ry="169.2" fill="#f5f6f7" stroke="#f5f6f7" transform="matrix(0.1951,-0.9808,0.9808,0.1951,30.2111,562.8124)" style="opacity: 0.5;" stroke-width="3" opacity="0.5"></ellipse><ellipse cx="331" cy="404" rx="129" ry="181.89" fill="#f5f6f7" stroke="#f5f6f7" transform="matrix(0.3827,-0.9239,0.9239,0.3827,-168.9155,555.2)" style="opacity: 0.5;" stroke-width="3" opacity="0.5"></ellipse><ellipse cx="795" cy="315" rx="127" ry="179.07" fill="#f5f6f7" stroke="#f5f6f7" transform="matrix(0.5556,-0.8315,0.8315,0.5556,91.4087,801.0137)" style="opacity: 0.5;" stroke-width="3" opacity="0.5"></ellipse><ellipse cx="656" cy="424" rx="121" ry="170.60999999999999" fill="#f5f6f7" stroke="#f5f6f7" transform="matrix(0.7071,-0.7071,0.7071,0.7071,-107.6753,588.0488)" style="opacity: 0.5;" stroke-width="3" opacity="0.5"></ellipse><ellipse cx="483" cy="324" rx="126" ry="177.66" fill="#f5f6f7" stroke="#f5f6f7" transform="matrix(0.8315,-0.5556,0.5556,0.8315,-98.6046,322.9443)" style="opacity: 0.5;" stroke-width="3" opacity="0.5"></ellipse><ellipse cx="468" cy="429" rx="122" ry="172.01999999999998" fill="#f5f6f7" stroke="#f5f6f7" transform="matrix(0.9239,-0.3827,0.3827,0.9239,-128.5468,211.7515)" style="opacity: 0.5;" stroke-width="3" opacity="0.5"></ellipse><ellipse cx="655" cy="266" rx="125" ry="176.25" fill="#f5f6f7" stroke="#f5f6f7" transform="matrix(0.9808,-0.1951,0.1951,0.9808,-39.3084,132.8953)" style="opacity: 0.5;" stroke-width="3" opacity="0.5"></ellipse></svg>