<svg height="678" version="1.1" width="1148" xmlns="http://www.w3.org/2000/svg" style="overflow: hidden; position: relative;"><desc>Created with Raphaël 2.0.1</desc><defs></defs><rect x="0" y="0" width="1148" height="678" r="0" rx="0" ry="0" fill="#0a0a2e" stroke="none" style=""></rect><ellipse cx="424" cy="342" rx="120" ry="169.2" fill="#f5f6f7" stroke="#f5f6f7" transform="matrix(1,0,0,1,0,0)" style="opacity: 0.5;" stroke-width="3" opacity="0.5"></ellipse><ellipse cx="421" cy="392" rx="127" ry="179.07" fill="#f5f6f7" stroke="#f5f6f7" transform="matrix(0.9808,0.1951,-0.1951,0.9808,84.5648,-74.6009)" style="opacity: 0.5;" stroke-width="3" opacity="0.5"></ellipse><ellipse cx="322" cy="335" rx="126" ry="177.66" fill="#f5f6f7" stroke="#f5f6f7" transform="matrix(0.9239,0.3827,-0.3827,0.9239,152.7097,-97.7237)" style="opacity: 0.5;" stroke-width="3" opacity="0.5"></ellipse><ellipse cx="519" cy="251" rx="120" ry="169.2" fill="#f5f6f7" stroke="#f5f6f7" transform="matrix(0.8315,0.5556,-0.5556,0.8315,226.9154,-246.0398)" style="opacity: 0.5;" stroke-width="3" opacity="0.5"></ellipse><ellipse cx="728" cy="269" rx="127" ry="179.07" fill="#f5f6f7" stroke="#f5f6f7" transform="matrix(0.7071,0.7071,-0.7071,0.7071,403.438,-435.9855)" style="opacity: 0.5;" stroke-width="3" opacity="0.5"></ellipse><ellipse cx="564" cy="268" rx="124" ry="174.84" fill="#f5f6f7" stroke="#f5f6f7" transform="matrix(0.5556,0.8315,-0.8315,0.5556,473.4922,-349.8417)" style="opacity: 0.5;" stroke-width="3" opacity="0.5"></ellipse><ellipse cx="375" cy="241" rx="123" ry="173.42999999999998" fill="#f5f6f7" stroke="#f5f6f7" transform="matrix(0.3827,0.9239,-0.9239,0.3827,454.1487,-197.6815)" style="opacity: 0.5;" stroke-width="3" opacity="0.5"></ellipse><ellipse cx="661" cy="334" rx="123" ry="173.42999999999998" fill="#f5f6f7" stroke="#f5f6f7" transform="matrix(0.1951,0.9808,-0.9808,0.1951,859.6276,-379.4592)" style="opacity: 0.5;" stroke-width="3" opacity="0.5"></ellipse><ellipse cx="713" cy="428" rx="121" ry="170.60999999999999" fill="#f5f6f7" stroke="#f5f6f7" transform="matrix(0,1,-1,0,1141,-285)" style="opacity: 0.5;" stroke-width="3" opacity="0.5"></ellipse><ellipse cx="760" cy="344" rx="123" ry="173.42999999999998" fill="#f5f6f7" stroke="#f5f6f7" transform="matrix(-0.1951,0.9808,-0.9808,-0.1951,1245.6588,-334.2857)" style="opacity: 0.5;" stroke-width="3" opacity="0.5"></ellipse><ellipse cx="563" cy="328" rx="128" ry="180.48" fill="#f5f6f7" stroke="#f5f6f7" transform="matrix(-0.3827,0.9239,-0.9239,-0.3827,1081.4833,-66.624)" style="opacity: 0.5;" stroke-width="3" opacity="0.5"></ellipse><ellipse cx="371" cy="329" rx="130" ry="183.29999999999998" fill="#f5f6f7" stroke="#f5f6f7" transform="matrix(-0.5556,0.8315,-0.8315,-0.5556,850.6701,203.3074)" style="opacity: 0.5;" stroke-width="3" opacity="0.5"></ellipse><ellipse cx="694" cy="273" rx="124" ry="174.84" fill="#f5f6f7" stroke="#f5f6f7" transform="matrix(-0.7071,0.7071,-0.7071,-0.7071,1377.7723,-24.692)" style="opacity: 0.5;" stroke-width="3" opacity="0.5"></ellipse><ellipse cx="766" cy="250" rx="121" ry="170.60999999999999" fill="#f5f6f7" stroke="#f5f6f7" transform="matrix(-0.8315,0.5556,-0.5556,-0.8315,1541.7983,32.3006)" style="opacity: 0.5;" stroke-width="3" opacity="0.5"></ellipse><ellipse cx="618" cy="411" rx="121" ry="170.60999999999999" fill="#f5f6f7" stroke="#f5f6f7" transform="matrix(-0.9239,0.3827,-0.3827,-0.9239,1346.2404,554.2161)" style="opacity: 0.5;" stroke-width="3" opacity="0.5"></ellipse><ellipse cx="435" cy="394" rx="129" ry="181.89" fill="#f5f6f7" stroke="#f5f6f7" transform="matrix(-0.9808,0.1951,-0.1951,-0.9808,938.5072,695.5651)" style="opacity: 0.5;" stroke-width="3" opacity="0.5"></ellipse><ellipse cx="429" cy="266" rx="120" ry="169.2" fill="#f5f6f7" stroke="#f5f6f7" transform="matrix(-1,0,0,-1,858,532)" style="opacity: 0.5;" stroke-width="3" opacity="0.5"></ellipse><ellipse cx="684" cy="325" rx="129" ry="181.89" fill="#f5f6f7" stroke="#f5f6f7" transform="matrix(-0.9808,-0.1951,0.1951,-0.9808,1291.4528,777.197)" style="opacity: 0.5;" stroke-width="3" opacity="0.5"></ellipse><ellipse cx="812" cy="375" rx="126" ry="177.66" fill="#f5f6f7" stroke="#f5f6f7" transform="matrix(-0.9239,-0.3827,0.3827,-0.9239,1418.6839,1032.1938)" style="opacity: 0.5;" stroke-width="3" opacity="0.5"></ellipse><ellipse cx="726" cy="408" rx="120" ry="169.2" fill="#f5f6f7" stroke="#f5f6f7" transform="matrix(-0.8315,-0.5556,0.5556,-0.8315,1102.9743,1150.5836)" style="opacity: 0.5;" stroke-width="3" opacity="0.5"></ellipse><ellipse cx="425" cy="282" rx="128" ry="180.48" fill="#f5f6f7" stroke="#f5f6f7" transform="matrix(-0.7071,-0.7071,0.7071,-0.7071,526.1163,781.9245)" style="opacity: 0.5;" stroke-width="3" opacity="0.5"></ellipse><ellipse cx="642" cy="389" rx="124" ry="174.84" fill="#f5f6f7" stroke="#f5f6f7" transform="matrix(-0.5556,-0.8315,0.8315,-0.5556,675.2344,1138.9203)" style="opacity: 0.5;" stroke-width="3" opacity="0.5"></ellipse><ellipse cx="452" cy="368" rx="121" ry="170.60999999999999" fill="#f5f6f7" stroke="#f5f6f7" transform="matrix(-0.3827,-0.9239,0.9239,-0.3827,284.9852,926.4211)" style="opacity: 0.5;" stroke-width="3" opacity="0.5"></ellipse><ellipse cx="400" cy="292" rx="127" ry="179.07" fill="#f5f6f7" stroke="#f5f6f7" transform="matrix(-0.1951,-0.9808,0.9808,-0.1951,191.6468,741.2805)" style="opacity: 0.5;" stroke-width="3" opacity="0.5"></ellipse><ellipse cx="806" cy="384" rx="123" ry="173.42999999999998" fill="#f5f6f7" stroke="#f5f6f7" transform="matrix(0,-1,1,0,422,1190)" style="opacity: 0.5;" stroke-width="3" opacity="0.5"></ellipse><ellipse cx="491" cy="246" rx="121" ry="170.60999999999999" fill="#f5f6f7" stroke="#f5f6f7" transform="matrix(0.1951,-0.9808,0.9808,0.1951,153.9375,679.5734)" style="opacity: 0.5;" stroke-width="3" opacity="0.5"></ellipse><ellipse cx="611" cy="394" rx="129" ry="181.89" fill="#f5f6f7" stroke="#f5f6f7" transform="matrix(0.3827,-0.9239,0.9239,0.3827,13.1719,807.7131)" style="opacity: 0.5;" stroke-width="3" opacity="0.5"></ellipse><ellipse cx="335" cy="426" rx="127" ry="179.07" fill="#f5f6f7" stroke="#f5f6f7" transform="matrix(0.5556,-0.8315,0.8315,0.5556,-205.3221,467.8694)" style="opacity: 0.5;" stroke-width="3" opacity="0.5"></ellipse><ellipse cx="458" cy="260" rx="126" ry="177.66" fill="#f5f6f7" stroke="#f5f6f7" transform="matrix(0.7071,-0.7071,0.7071,0.7071,-49.7027,400.0071)" style="opacity: 0.5;" stroke-width="3" opacity="0.5"></ellipse><ellipse cx="413" cy="274" rx="122" ry="172.01999999999998" fill="#f5f6f7" stroke="#f5f6f7" transform="matrix(0.8315,-0.5556,0.5556,0.8315,-82.6232,275.6278)" style="opacity: 0.5;" stroke-width="3" opacity="0.5"></ellipse><ellipse cx="820" cy="273" rx="123" ry="173.42999999999998" fill="#f5f6f7" stroke="#f5f6f7" transform="matrix(0.9239,-0.3827,0.3827,0.9239,-42.0538,334.5813)" style="opacity: 0.5;" stroke-width="3" opacity="0.5"></ellipse><ellipse cx="674" cy="359" rx="122" ry="172.01999999999998" fill="#f5f6f7" stroke="#f5f6f7" transform="matrix(0.9808,-0.1951,0.1951,0.9808,-57.0867,138.389)" style="opacity: 0.5;" stroke-width="3" opacity="0.5"></ellipse></svg>