<svg height="678" version="1.1" width="1148" xmlns="http://www.w3.org/2000/svg" style="overflow: hidden; position: relative;"><desc>Created with Raphaël 2.0.1</desc><defs></defs><rect x="0" y="0" width="1148" height="678" r="0" rx="0" ry="0" fill="#1e2040" stroke="none" style=""></rect><ellipse cx="526" cy="265" rx="127" ry="179.07" fill="#f5f6f7" stroke="#f5f6f7" transform="matrix(1,0,0,1,0,0)" style="opacity: 0.5;" stroke-width="3" opacity="0.5"></ellipse><ellipse cx="351" cy="290" rx="120" ry="169.2" fill="#f5f6f7" stroke="#f5f6f7" transform="matrix(0.9808,0.1951,-0.1951,0.9808,63.3206,-62.9044)" style="opacity: 0.5;" stroke-width="3" opacity="0.5"></ellipse><ellipse cx="827" cy="304" rx="126" ry="177.66" fill="#f5f6f7" stroke="#f5f6f7" transform="matrix(0.9239,0.3827,-0.3827,0.9239,179.2874,-293.3386)" style="opacity: 0.5;" stroke-width="3" opacity="0.5"></ellipse><ellipse cx="621" cy="241" rx="130" ry="183.29999999999998" fill="#f5f6f7" stroke="#f5f6f7" transform="matrix(0.8315,0.5556,-0.5556,0.8315,238.5498,-304.3933)" style="opacity: 0.5;" stroke-width="3" opacity="0.5"></ellipse><ellipse cx="808" cy="438" rx="128" ry="180.48" fill="#f5f6f7" stroke="#f5f6f7" transform="matrix(0.7071,0.7071,-0.7071,0.7071,546.3705,-443.055)" style="opacity: 0.5;" stroke-width="3" opacity="0.5"></ellipse><ellipse cx="416" cy="422" rx="129" ry="181.89" fill="#f5f6f7" stroke="#f5f6f7" transform="matrix(0.5556,0.8315,-0.8315,0.5556,535.763,-158.342)" style="opacity: 0.5;" stroke-width="3" opacity="0.5"></ellipse><ellipse cx="731" cy="336" rx="123" ry="173.42999999999998" fill="#f5f6f7" stroke="#f5f6f7" transform="matrix(0.3827,0.9239,-0.9239,0.3827,761.6819,-467.9376)" style="opacity: 0.5;" stroke-width="3" opacity="0.5"></ellipse><ellipse cx="392" cy="421" rx="123" ry="173.42999999999998" fill="#f5f6f7" stroke="#f5f6f7" transform="matrix(0.1951,0.9808,-0.9808,0.1951,728.4352,-45.6009)" style="opacity: 0.5;" stroke-width="3" opacity="0.5"></ellipse><ellipse cx="423" cy="361" rx="122" ry="172.01999999999998" fill="#f5f6f7" stroke="#f5f6f7" transform="matrix(0,1,-1,0,784,-62)" style="opacity: 0.5;" stroke-width="3" opacity="0.5"></ellipse><ellipse cx="606" cy="316" rx="125" ry="176.25" fill="#f5f6f7" stroke="#f5f6f7" transform="matrix(-0.1951,0.9808,-0.9808,-0.1951,1034.1529,-216.7073)" style="opacity: 0.5;" stroke-width="3" opacity="0.5"></ellipse><ellipse cx="816" cy="334" rx="127" ry="179.07" fill="#f5f6f7" stroke="#f5f6f7" transform="matrix(-0.3827,0.9239,-0.9239,-0.3827,1436.8454,-292.0694)" style="opacity: 0.5;" stroke-width="3" opacity="0.5"></ellipse><ellipse cx="654" cy="375" rx="124" ry="174.84" fill="#f5f6f7" stroke="#f5f6f7" transform="matrix(-0.5556,0.8315,-0.8315,-0.5556,1329.144,39.5577)" style="opacity: 0.5;" stroke-width="3" opacity="0.5"></ellipse><ellipse cx="695" cy="267" rx="126" ry="177.66" fill="#f5f6f7" stroke="#f5f6f7" transform="matrix(-0.7071,0.7071,-0.7071,-0.7071,1375.2367,-35.6417)" style="opacity: 0.5;" stroke-width="3" opacity="0.5"></ellipse><ellipse cx="375" cy="376" rx="130" ry="183.29999999999998" fill="#f5f6f7" stroke="#f5f6f7" transform="matrix(-0.8315,0.5556,-0.5556,-0.8315,895.6955,480.2937)" style="opacity: 0.5;" stroke-width="3" opacity="0.5"></ellipse><ellipse cx="352" cy="401" rx="124" ry="174.84" fill="#f5f6f7" stroke="#f5f6f7" transform="matrix(-0.9239,0.3827,-0.3827,-0.9239,830.6617,636.7711)" style="opacity: 0.5;" stroke-width="3" opacity="0.5"></ellipse><ellipse cx="497" cy="259" rx="126" ry="177.66" fill="#f5f6f7" stroke="#f5f6f7" transform="matrix(-0.9808,0.1951,-0.1951,-0.9808,1034.9787,416.0635)" style="opacity: 0.5;" stroke-width="3" opacity="0.5"></ellipse><ellipse cx="400" cy="372" rx="120" ry="169.2" fill="#f5f6f7" stroke="#f5f6f7" transform="matrix(-1,0,0,-1,800,744)" style="opacity: 0.5;" stroke-width="3" opacity="0.5"></ellipse><ellipse cx="693" cy="303" rx="123" ry="173.42999999999998" fill="#f5f6f7" stroke="#f5f6f7" transform="matrix(-0.9808,-0.1951,0.1951,-0.9808,1313.5718,735.3755)" style="opacity: 0.5;" stroke-width="3" opacity="0.5"></ellipse><ellipse cx="620" cy="369" rx="120" ry="169.2" fill="#f5f6f7" stroke="#f5f6f7" transform="matrix(-0.9239,-0.3827,0.3827,-0.9239,1051.5951,947.1753)" style="opacity: 0.5;" stroke-width="3" opacity="0.5"></ellipse><ellipse cx="572" cy="292" rx="126" ry="177.66" fill="#f5f6f7" stroke="#f5f6f7" transform="matrix(-0.8315,-0.5556,0.5556,-0.8315,885.3741,852.5753)" style="opacity: 0.5;" stroke-width="3" opacity="0.5"></ellipse><ellipse cx="500" cy="331" rx="123" ry="173.42999999999998" fill="#f5f6f7" stroke="#f5f6f7" transform="matrix(-0.7071,-0.7071,0.7071,-0.7071,619.501,918.6057)" style="opacity: 0.5;" stroke-width="3" opacity="0.5"></ellipse><ellipse cx="454" cy="302" rx="120" ry="169.2" fill="#f5f6f7" stroke="#f5f6f7" transform="matrix(-0.5556,-0.8315,0.8315,-0.5556,455.1251,847.2694)" style="opacity: 0.5;" stroke-width="3" opacity="0.5"></ellipse><ellipse cx="713" cy="355" rx="120" ry="169.2" fill="#f5f6f7" stroke="#f5f6f7" transform="matrix(-0.3827,-0.9239,0.9239,-0.3827,657.8761,1149.5787)" style="opacity: 0.5;" stroke-width="3" opacity="0.5"></ellipse><ellipse cx="347" cy="286" rx="125" ry="176.25" fill="#f5f6f7" stroke="#f5f6f7" transform="matrix(-0.1951,-0.9808,0.9808,-0.1951,134.1918,682.1283)" style="opacity: 0.5;" stroke-width="3" opacity="0.5"></ellipse><ellipse cx="705" cy="421" rx="125" ry="176.25" fill="#f5f6f7" stroke="#f5f6f7" transform="matrix(0,-1,1,0,284,1126)" style="opacity: 0.5;" stroke-width="3" opacity="0.5"></ellipse><ellipse cx="526" cy="417" rx="124" ry="174.84" fill="#f5f6f7" stroke="#f5f6f7" transform="matrix(0.1951,-0.9808,0.9808,0.1951,14.395,851.5404)" style="opacity: 0.5;" stroke-width="3" opacity="0.5"></ellipse><ellipse cx="543" cy="258" rx="127" ry="179.07" fill="#f5f6f7" stroke="#f5f6f7" transform="matrix(0.3827,-0.9239,0.9239,0.3827,96.842,660.9343)" style="opacity: 0.5;" stroke-width="3" opacity="0.5"></ellipse><ellipse cx="479" cy="406" rx="123" ry="173.42999999999998" fill="#f5f6f7" stroke="#f5f6f7" transform="matrix(0.5556,-0.8315,0.8315,0.5556,-124.6948,578.7124)" style="opacity: 0.5;" stroke-width="3" opacity="0.5"></ellipse><ellipse cx="629" cy="366" rx="122" ry="172.01999999999998" fill="#f5f6f7" stroke="#f5f6f7" transform="matrix(0.7071,-0.7071,0.7071,0.7071,-74.5712,551.9691)" style="opacity: 0.5;" stroke-width="3" opacity="0.5"></ellipse><ellipse cx="812" cy="318" rx="124" ry="174.84" fill="#f5f6f7" stroke="#f5f6f7" transform="matrix(0.8315,-0.5556,0.5556,0.8315,-39.8247,504.7157)" style="opacity: 0.5;" stroke-width="3" opacity="0.5"></ellipse><ellipse cx="509" cy="357" rx="127" ry="179.07" fill="#f5f6f7" stroke="#f5f6f7" transform="matrix(0.9239,-0.3827,0.3827,0.9239,-97.8727,221.9609)" style="opacity: 0.5;" stroke-width="3" opacity="0.5"></ellipse><ellipse cx="569" cy="427" rx="121" ry="170.60999999999999" fill="#f5f6f7" stroke="#f5f6f7" transform="matrix(0.9808,-0.1951,0.1951,0.9808,-72.3704,119.2111)" style="opacity: 0.5;" stroke-width="3" opacity="0.5"></ellipse></svg>