<svg height="678" version="1.1" width="1148" xmlns="http://www.w3.org/2000/svg" style="overflow: hidden; position: relative;"><desc>Created with Raphaël 2.0.1</desc><defs></defs><rect x="0" y="0" width="1148" height="678" r="0" rx="0" ry="0" fill="#99c9ff" stroke="none" style=""></rect><ellipse cx="381" cy="400" rx="124" ry="174.84" fill="#f5f6f7" stroke="#f5f6f7" transform="matrix(1,0,0,1,0,0)" style="opacity: 0.5;" stroke-width="3" opacity="0.5"></ellipse><ellipse cx="825" cy="353" rx="129" ry="181.89" fill="#f5f6f7" stroke="#f5f6f7" transform="matrix(0.9808,0.1951,-0.1951,0.9808,84.719,-154.1667)" style="opacity: 0.5;" stroke-width="3" opacity="0.5"></ellipse><ellipse cx="328" cy="274" rx="120" ry="169.2" fill="#f5f6f7" stroke="#f5f6f7" transform="matrix(0.9239,0.3827,-0.3827,0.9239,129.8228,-104.6632)" style="opacity: 0.5;" stroke-width="3" opacity="0.5"></ellipse><ellipse cx="729" cy="335" rx="122" ry="172.01999999999998" fill="#f5f6f7" stroke="#f5f6f7" transform="matrix(0.8315,0.5556,-0.5556,0.8315,308.9747,-348.553)" style="opacity: 0.5;" stroke-width="3" opacity="0.5"></ellipse><ellipse cx="488" cy="350" rx="127" ry="179.07" fill="#f5f6f7" stroke="#f5f6f7" transform="matrix(0.7071,0.7071,-0.7071,0.7071,390.4193,-242.5555)" style="opacity: 0.5;" stroke-width="3" opacity="0.5"></ellipse><ellipse cx="472" cy="380" rx="130" ry="183.29999999999998" fill="#f5f6f7" stroke="#f5f6f7" transform="matrix(0.5556,0.8315,-0.8315,0.5556,525.7293,-223.5703)" style="opacity: 0.5;" stroke-width="3" opacity="0.5"></ellipse><ellipse cx="365" cy="351" rx="122" ry="172.01999999999998" fill="#f5f6f7" stroke="#f5f6f7" transform="matrix(0.3827,0.9239,-0.9239,0.3827,549.6023,-120.5379)" style="opacity: 0.5;" stroke-width="3" opacity="0.5"></ellipse><ellipse cx="465" cy="430" rx="125" ry="176.25" fill="#f5f6f7" stroke="#f5f6f7" transform="matrix(0.1951,0.9808,-0.9808,0.1951,796.0207,-109.954)" style="opacity: 0.5;" stroke-width="3" opacity="0.5"></ellipse><ellipse cx="400" cy="244" rx="120" ry="169.2" fill="#f5f6f7" stroke="#f5f6f7" transform="matrix(0,1,-1,0,644,-156)" style="opacity: 0.5;" stroke-width="3" opacity="0.5"></ellipse><ellipse cx="369" cy="410" rx="127" ry="179.07" fill="#f5f6f7" stroke="#f5f6f7" transform="matrix(-0.1951,0.9808,-0.9808,-0.1951,843.1103,128.0773)" style="opacity: 0.5;" stroke-width="3" opacity="0.5"></ellipse><ellipse cx="377" cy="409" rx="121" ry="170.60999999999999" fill="#f5f6f7" stroke="#f5f6f7" transform="matrix(-0.3827,0.9239,-0.9239,-0.3827,899.1384,217.2149)" style="opacity: 0.5;" stroke-width="3" opacity="0.5"></ellipse><ellipse cx="385" cy="268" rx="120" ry="169.2" fill="#f5f6f7" stroke="#f5f6f7" transform="matrix(-0.5556,0.8315,-0.8315,-0.5556,821.7284,96.777)" style="opacity: 0.5;" stroke-width="3" opacity="0.5"></ellipse><ellipse cx="684" cy="379" rx="124" ry="174.84" fill="#f5f6f7" stroke="#f5f6f7" transform="matrix(-0.7071,0.7071,-0.7071,-0.7071,1435.6545,163.3324)" style="opacity: 0.5;" stroke-width="3" opacity="0.5"></ellipse><ellipse cx="488" cy="408" rx="126" ry="177.66" fill="#f5f6f7" stroke="#f5f6f7" transform="matrix(-0.8315,0.5556,-0.5556,-0.8315,1120.4298,476.1213)" style="opacity: 0.5;" stroke-width="3" opacity="0.5"></ellipse><ellipse cx="533" cy="333" rx="125" ry="176.25" fill="#f5f6f7" stroke="#f5f6f7" transform="matrix(-0.9239,0.3827,-0.3827,-0.9239,1152.8614,436.6816)" style="opacity: 0.5;" stroke-width="3" opacity="0.5"></ellipse><ellipse cx="739" cy="245" rx="129" ry="181.89" fill="#f5f6f7" stroke="#f5f6f7" transform="matrix(-0.9808,0.1951,-0.1951,-0.9808,1511.5975,341.1206)" style="opacity: 0.5;" stroke-width="3" opacity="0.5"></ellipse><ellipse cx="369" cy="253" rx="127" ry="179.07" fill="#f5f6f7" stroke="#f5f6f7" transform="matrix(-1,0,0,-1,738,506)" style="opacity: 0.5;" stroke-width="3" opacity="0.5"></ellipse><ellipse cx="442" cy="262" rx="124" ry="174.84" fill="#f5f6f7" stroke="#f5f6f7" transform="matrix(-0.9808,-0.1951,0.1951,-0.9808,824.3934,605.1957)" style="opacity: 0.5;" stroke-width="3" opacity="0.5"></ellipse><ellipse cx="594" cy="424" rx="129" ry="181.89" fill="#f5f6f7" stroke="#f5f6f7" transform="matrix(-0.9239,-0.3827,0.3827,-0.9239,980.5267,1043.0389)" style="opacity: 0.5;" stroke-width="3" opacity="0.5"></ellipse><ellipse cx="479" cy="256" rx="123" ry="173.42999999999998" fill="#f5f6f7" stroke="#f5f6f7" transform="matrix(-0.8315,-0.5556,0.5556,-0.8315,735.048,734.9744)" style="opacity: 0.5;" stroke-width="3" opacity="0.5"></ellipse><ellipse cx="513" cy="418" rx="122" ry="172.01999999999998" fill="#f5f6f7" stroke="#f5f6f7" transform="matrix(-0.7071,-0.7071,0.7071,-0.7071,580.1751,1076.3164)" style="opacity: 0.5;" stroke-width="3" opacity="0.5"></ellipse><ellipse cx="454" cy="244" rx="122" ry="172.01999999999998" fill="#f5f6f7" stroke="#f5f6f7" transform="matrix(-0.5556,-0.8315,0.8315,-0.5556,503.3503,757.0463)" style="opacity: 0.5;" stroke-width="3" opacity="0.5"></ellipse><ellipse cx="693" cy="251" rx="124" ry="174.84" fill="#f5f6f7" stroke="#f5f6f7" transform="matrix(-0.3827,-0.9239,0.9239,-0.3827,726.3059,987.3021)" style="opacity: 0.5;" stroke-width="3" opacity="0.5"></ellipse><ellipse cx="779" cy="281" rx="123" ry="173.42999999999998" fill="#f5f6f7" stroke="#f5f6f7" transform="matrix(-0.1951,-0.9808,0.9808,-0.1951,655.3747,1099.8521)" style="opacity: 0.5;" stroke-width="3" opacity="0.5"></ellipse><ellipse cx="525" cy="280" rx="129" ry="181.89" fill="#f5f6f7" stroke="#f5f6f7" transform="matrix(0,-1,1,0,245,805)" style="opacity: 0.5;" stroke-width="3" opacity="0.5"></ellipse><ellipse cx="622" cy="262" rx="121" ry="170.60999999999999" fill="#f5f6f7" stroke="#f5f6f7" transform="matrix(0.1951,-0.9808,0.9808,0.1951,243.6881,820.9348)" style="opacity: 0.5;" stroke-width="3" opacity="0.5"></ellipse><ellipse cx="418" cy="322" rx="128" ry="180.48" fill="#f5f6f7" stroke="#f5f6f7" transform="matrix(0.3827,-0.9239,0.9239,0.3827,-39.4509,584.9576)" style="opacity: 0.5;" stroke-width="3" opacity="0.5"></ellipse><ellipse cx="690" cy="301" rx="122" ry="172.01999999999998" fill="#f5f6f7" stroke="#f5f6f7" transform="matrix(0.5556,-0.8315,0.8315,0.5556,56.3842,707.4874)" style="opacity: 0.5;" stroke-width="3" opacity="0.5"></ellipse><ellipse cx="826" cy="413" rx="124" ry="174.84" fill="#f5f6f7" stroke="#f5f6f7" transform="matrix(0.7071,-0.7071,0.7071,0.7071,-50.1053,705.0351)" style="opacity: 0.5;" stroke-width="3" opacity="0.5"></ellipse><ellipse cx="372" cy="392" rx="127" ry="179.07" fill="#f5f6f7" stroke="#f5f6f7" transform="matrix(0.8315,-0.5556,0.5556,0.8315,-155.0902,272.736)" style="opacity: 0.5;" stroke-width="3" opacity="0.5"></ellipse><ellipse cx="471" cy="289" rx="128" ry="180.48" fill="#f5f6f7" stroke="#f5f6f7" transform="matrix(0.9239,-0.3827,0.3827,0.9239,-74.7428,202.2427)" style="opacity: 0.5;" stroke-width="3" opacity="0.5"></ellipse><ellipse cx="506" cy="266" rx="129" ry="181.89" fill="#f5f6f7" stroke="#f5f6f7" transform="matrix(0.9808,-0.1951,0.1951,0.9808,-42.1714,103.8268)" style="opacity: 0.5;" stroke-width="3" opacity="0.5"></ellipse></svg>