<svg height="678" version="1.1" width="1148" xmlns="http://www.w3.org/2000/svg" style="overflow: hidden; position: relative;"><desc>Created with Raphaël 2.0.1</desc><defs></defs><rect x="0" y="0" width="1148" height="678" r="0" rx="0" ry="0" fill="#dbb8ff" stroke="none" style=""></rect><ellipse cx="751" cy="328" rx="123" ry="173.42999999999998" fill="#f5f6f7" stroke="#f5f6f7" transform="matrix(1,0,0,1,0,0)" style="opacity: 0.5;" stroke-width="3" opacity="0.5"></ellipse><ellipse cx="599" cy="401" rx="123" ry="173.42999999999998" fill="#f5f6f7" stroke="#f5f6f7" transform="matrix(0.9808,0.1951,-0.1951,0.9808,89.7408,-109.154)" style="opacity: 0.5;" stroke-width="3" opacity="0.5"></ellipse><ellipse cx="797" cy="361" rx="126" ry="177.66" fill="#f5f6f7" stroke="#f5f6f7" transform="matrix(0.9239,0.3827,-0.3827,0.9239,198.8167,-277.5192)" style="opacity: 0.5;" stroke-width="3" opacity="0.5"></ellipse><ellipse cx="662" cy="283" rx="123" ry="173.42999999999998" fill="#f5f6f7" stroke="#f5f6f7" transform="matrix(0.8315,0.5556,-0.5556,0.8315,268.7935,-320.0934)" style="opacity: 0.5;" stroke-width="3" opacity="0.5"></ellipse><ellipse cx="770" cy="412" rx="128" ry="180.48" fill="#f5f6f7" stroke="#f5f6f7" transform="matrix(0.7071,0.7071,-0.7071,0.7071,516.8558,-423.8002)" style="opacity: 0.5;" stroke-width="3" opacity="0.5"></ellipse><ellipse cx="668" cy="416" rx="127" ry="179.07" fill="#f5f6f7" stroke="#f5f6f7" transform="matrix(0.5556,0.8315,-0.8315,0.5556,642.7704,-370.5389)" style="opacity: 0.5;" stroke-width="3" opacity="0.5"></ellipse><ellipse cx="611" cy="394" rx="126" ry="177.66" fill="#f5f6f7" stroke="#f5f6f7" transform="matrix(0.3827,0.9239,-0.9239,0.3827,741.189,-321.2677)" style="opacity: 0.5;" stroke-width="3" opacity="0.5"></ellipse><ellipse cx="673" cy="263" rx="120" ry="169.2" fill="#f5f6f7" stroke="#f5f6f7" transform="matrix(0.1951,0.9808,-0.9808,0.1951,799.6507,-448.3772)" style="opacity: 0.5;" stroke-width="3" opacity="0.5"></ellipse><ellipse cx="357" cy="403" rx="125" ry="176.25" fill="#f5f6f7" stroke="#f5f6f7" transform="matrix(0,1,-1,0,760,46)" style="opacity: 0.5;" stroke-width="3" opacity="0.5"></ellipse><ellipse cx="729" cy="356" rx="126" ry="177.66" fill="#f5f6f7" stroke="#f5f6f7" transform="matrix(-0.1951,0.9808,-0.9808,-0.1951,1220.3804,-289.5403)" style="opacity: 0.5;" stroke-width="3" opacity="0.5"></ellipse><ellipse cx="692" cy="328" rx="127" ry="179.07" fill="#f5f6f7" stroke="#f5f6f7" transform="matrix(-0.3827,0.9239,-0.9239,-0.3827,1259.8494,-185.8045)" style="opacity: 0.5;" stroke-width="3" opacity="0.5"></ellipse><ellipse cx="776" cy="346" rx="129" ry="181.89" fill="#f5f6f7" stroke="#f5f6f7" transform="matrix(-0.5556,0.8315,-0.8315,-0.5556,1494.811,-106.9931)" style="opacity: 0.5;" stroke-width="3" opacity="0.5"></ellipse><ellipse cx="731" cy="307" rx="127" ry="179.07" fill="#f5f6f7" stroke="#f5f6f7" transform="matrix(-0.7071,0.7071,-0.7071,-0.7071,1464.9768,7.1867)" style="opacity: 0.5;" stroke-width="3" opacity="0.5"></ellipse><ellipse cx="411" cy="396" rx="127" ry="179.07" fill="#f5f6f7" stroke="#f5f6f7" transform="matrix(-0.8315,0.5556,-0.5556,-0.8315,972.7398,496.9226)" style="opacity: 0.5;" stroke-width="3" opacity="0.5"></ellipse><ellipse cx="341" cy="287" rx="129" ry="181.89" fill="#f5f6f7" stroke="#f5f6f7" transform="matrix(-0.9239,0.3827,-0.3827,-0.9239,765.8731,421.6584)" style="opacity: 0.5;" stroke-width="3" opacity="0.5"></ellipse><ellipse cx="475" cy="261" rx="122" ry="172.01999999999998" fill="#f5f6f7" stroke="#f5f6f7" transform="matrix(-0.9808,0.1951,-0.1951,-0.9808,991.7916,424.3171)" style="opacity: 0.5;" stroke-width="3" opacity="0.5"></ellipse><ellipse cx="370" cy="287" rx="120" ry="169.2" fill="#f5f6f7" stroke="#f5f6f7" transform="matrix(-1,0,0,-1,740,574)" style="opacity: 0.5;" stroke-width="3" opacity="0.5"></ellipse><ellipse cx="451" cy="394" rx="125" ry="176.25" fill="#f5f6f7" stroke="#f5f6f7" transform="matrix(-0.9808,-0.1951,0.1951,-0.9808,816.4686,868.4151)" style="opacity: 0.5;" stroke-width="3" opacity="0.5"></ellipse><ellipse cx="804" cy="320" rx="125" ry="176.25" fill="#f5f6f7" stroke="#f5f6f7" transform="matrix(-0.9239,-0.3827,0.3827,-0.9239,1424.3404,923.3189)" style="opacity: 0.5;" stroke-width="3" opacity="0.5"></ellipse><ellipse cx="406" cy="254" rx="128" ry="180.48" fill="#f5f6f7" stroke="#f5f6f7" transform="matrix(-0.8315,-0.5556,0.5556,-0.8315,602.4618,690.7548)" style="opacity: 0.5;" stroke-width="3" opacity="0.5"></ellipse><ellipse cx="747" cy="320" rx="124" ry="174.84" fill="#f5f6f7" stroke="#f5f6f7" transform="matrix(-0.7071,-0.7071,0.7071,-0.7071,1048.9346,1074.4829)" style="opacity: 0.5;" stroke-width="3" opacity="0.5"></ellipse><ellipse cx="681" cy="362" rx="125" ry="176.25" fill="#f5f6f7" stroke="#f5f6f7" transform="matrix(-0.5556,-0.8315,0.8315,-0.5556,758.3513,1129.3472)" style="opacity: 0.5;" stroke-width="3" opacity="0.5"></ellipse><ellipse cx="401" cy="382" rx="129" ry="181.89" fill="#f5f6f7" stroke="#f5f6f7" transform="matrix(-0.3827,-0.9239,0.9239,-0.3827,201.5341,898.6608)" style="opacity: 0.5;" stroke-width="3" opacity="0.5"></ellipse><ellipse cx="762" cy="406" rx="123" ry="173.42999999999998" fill="#f5f6f7" stroke="#f5f6f7" transform="matrix(-0.1951,-0.9808,0.9808,-0.1951,512.46,1232.5651)" style="opacity: 0.5;" stroke-width="3" opacity="0.5"></ellipse><ellipse cx="735" cy="326" rx="128" ry="180.48" fill="#f5f6f7" stroke="#f5f6f7" transform="matrix(0,-1,1,0,409,1061)" style="opacity: 0.5;" stroke-width="3" opacity="0.5"></ellipse><ellipse cx="470" cy="412" rx="123" ry="173.42999999999998" fill="#f5f6f7" stroke="#f5f6f7" transform="matrix(0.1951,-0.9808,0.9808,0.1951,-25.776,792.5919)" style="opacity: 0.5;" stroke-width="3" opacity="0.5"></ellipse><ellipse cx="454" cy="408" rx="130" ry="183.29999999999998" fill="#f5f6f7" stroke="#f5f6f7" transform="matrix(0.3827,-0.9239,0.9239,0.3827,-96.6811,671.3065)" style="opacity: 0.5;" stroke-width="3" opacity="0.5"></ellipse><ellipse cx="742" cy="309" rx="121" ry="170.60999999999999" fill="#f5f6f7" stroke="#f5f6f7" transform="matrix(0.5556,-0.8315,0.8315,0.5556,72.8428,754.2793)" style="opacity: 0.5;" stroke-width="3" opacity="0.5"></ellipse><ellipse cx="720" cy="376" rx="125" ry="176.25" fill="#f5f6f7" stroke="#f5f6f7" transform="matrix(0.7071,-0.7071,0.7071,0.7071,-54.989,619.2447)" style="opacity: 0.5;" stroke-width="3" opacity="0.5"></ellipse><ellipse cx="436" cy="265" rx="129" ry="181.89" fill="#f5f6f7" stroke="#f5f6f7" transform="matrix(0.8315,-0.5556,0.5556,0.8315,-73.7469,286.8892)" style="opacity: 0.5;" stroke-width="3" opacity="0.5"></ellipse><ellipse cx="711" cy="284" rx="123" ry="173.42999999999998" fill="#f5f6f7" stroke="#f5f6f7" transform="matrix(0.9239,-0.3827,0.3827,0.9239,-54.5604,293.7061)" style="opacity: 0.5;" stroke-width="3" opacity="0.5"></ellipse><ellipse cx="782" cy="263" rx="123" ry="173.42999999999998" fill="#f5f6f7" stroke="#f5f6f7" transform="matrix(0.9808,-0.1951,0.1951,0.9808,-36.2828,157.6141)" style="opacity: 0.5;" stroke-width="3" opacity="0.5"></ellipse></svg>