<svg height="678" version="1.1" width="1148" xmlns="http://www.w3.org/2000/svg" style="overflow: hidden; position: relative;"><desc>Created with Raphaël 2.0.1</desc><defs></defs><rect x="0" y="0" width="1148" height="678" r="0" rx="0" ry="0" fill="#acd157" stroke="none" style=""></rect><ellipse cx="570" cy="264" rx="127" ry="179.07" fill="#f5f6f7" stroke="#f5f6f7" transform="matrix(1,0,0,1,0,0)" style="opacity: 0.5;" stroke-width="3" opacity="0.5"></ellipse><ellipse cx="347" cy="273" rx="121" ry="170.60999999999999" fill="#f5f6f7" stroke="#f5f6f7" transform="matrix(0.9808,0.1951,-0.1951,0.9808,59.9272,-62.4507)" style="opacity: 0.5;" stroke-width="3" opacity="0.5"></ellipse><ellipse cx="813" cy="436" rx="130" ry="183.29999999999998" fill="#f5f6f7" stroke="#f5f6f7" transform="matrix(0.9239,0.3827,-0.3827,0.9239,228.7359,-277.9331)" style="opacity: 0.5;" stroke-width="3" opacity="0.5"></ellipse><ellipse cx="787" cy="322" rx="127" ry="179.07" fill="#f5f6f7" stroke="#f5f6f7" transform="matrix(0.8315,0.5556,-0.5556,0.8315,311.527,-382.967)" style="opacity: 0.5;" stroke-width="3" opacity="0.5"></ellipse><ellipse cx="647" cy="334" rx="122" ry="172.01999999999998" fill="#f5f6f7" stroke="#f5f6f7" transform="matrix(0.7071,0.7071,-0.7071,0.7071,425.6756,-359.6718)" style="opacity: 0.5;" stroke-width="3" opacity="0.5"></ellipse><ellipse cx="406" cy="425" rx="124" ry="174.84" fill="#f5f6f7" stroke="#f5f6f7" transform="matrix(0.5556,0.8315,-0.8315,0.5556,533.8131,-148.694)" style="opacity: 0.5;" stroke-width="3" opacity="0.5"></ellipse><ellipse cx="600" cy="364" rx="122" ry="172.01999999999998" fill="#f5f6f7" stroke="#f5f6f7" transform="matrix(0.3827,0.9239,-0.9239,0.3827,706.6821,-329.6245)" style="opacity: 0.5;" stroke-width="3" opacity="0.5"></ellipse><ellipse cx="814" cy="340" rx="124" ry="174.84" fill="#f5f6f7" stroke="#f5f6f7" transform="matrix(0.1951,0.9808,-0.9808,0.1951,988.6635,-524.6899)" style="opacity: 0.5;" stroke-width="3" opacity="0.5"></ellipse><ellipse cx="723" cy="244" rx="128" ry="180.48" fill="#f5f6f7" stroke="#f5f6f7" transform="matrix(0,1,-1,0,967,-479)" style="opacity: 0.5;" stroke-width="3" opacity="0.5"></ellipse><ellipse cx="676" cy="396" rx="121" ry="170.60999999999999" fill="#f5f6f7" stroke="#f5f6f7" transform="matrix(-0.1951,0.9808,-0.9808,-0.1951,1196.272,-189.7551)" style="opacity: 0.5;" stroke-width="3" opacity="0.5"></ellipse><ellipse cx="348" cy="292" rx="123" ry="173.42999999999998" fill="#f5f6f7" stroke="#f5f6f7" transform="matrix(-0.3827,0.9239,-0.9239,-0.3827,750.9467,82.2335)" style="opacity: 0.5;" stroke-width="3" opacity="0.5"></ellipse><ellipse cx="483" cy="379" rx="128" ry="180.48" fill="#f5f6f7" stroke="#f5f6f7" transform="matrix(-0.5556,0.8315,-0.8315,-0.5556,1066.4674,187.9613)" style="opacity: 0.5;" stroke-width="3" opacity="0.5"></ellipse><ellipse cx="803" cy="314" rx="128" ry="180.48" fill="#f5f6f7" stroke="#f5f6f7" transform="matrix(-0.7071,0.7071,-0.7071,-0.7071,1592.8383,-31.7752)" style="opacity: 0.5;" stroke-width="3" opacity="0.5"></ellipse><ellipse cx="547" cy="339" rx="124" ry="174.84" fill="#f5f6f7" stroke="#f5f6f7" transform="matrix(-0.8315,0.5556,-0.5556,-0.8315,1190.1522,316.9713)" style="opacity: 0.5;" stroke-width="3" opacity="0.5"></ellipse><ellipse cx="342" cy="410" rx="127" ry="179.07" fill="#f5f6f7" stroke="#f5f6f7" transform="matrix(-0.9239,0.3827,-0.3827,-0.9239,814.867,657.9129)" style="opacity: 0.5;" stroke-width="3" opacity="0.5"></ellipse><ellipse cx="382" cy="371" rx="121" ry="170.60999999999999" fill="#f5f6f7" stroke="#f5f6f7" transform="matrix(-0.9808,0.1951,-0.1951,-0.9808,829.0385,660.3468)" style="opacity: 0.5;" stroke-width="3" opacity="0.5"></ellipse><ellipse cx="363" cy="356" rx="130" ry="183.29999999999998" fill="#f5f6f7" stroke="#f5f6f7" transform="matrix(-1,0,0,-1,726,712)" style="opacity: 0.5;" stroke-width="3" opacity="0.5"></ellipse><ellipse cx="476" cy="291" rx="129" ry="181.89" fill="#f5f6f7" stroke="#f5f6f7" transform="matrix(-0.9808,-0.1951,0.1951,-0.9808,886.0825,669.2715)" style="opacity: 0.5;" stroke-width="3" opacity="0.5"></ellipse><ellipse cx="360" cy="312" rx="126" ry="177.66" fill="#f5f6f7" stroke="#f5f6f7" transform="matrix(-0.9239,-0.3827,0.3827,-0.9239,573.1994,738.0165)" style="opacity: 0.5;" stroke-width="3" opacity="0.5"></ellipse><ellipse cx="512" cy="274" rx="122" ry="172.01999999999998" fill="#f5f6f7" stroke="#f5f6f7" transform="matrix(-0.8315,-0.5556,0.5556,-0.8315,785.4862,786.2746)" style="opacity: 0.5;" stroke-width="3" opacity="0.5"></ellipse><ellipse cx="347" cy="402" rx="122" ry="172.01999999999998" fill="#f5f6f7" stroke="#f5f6f7" transform="matrix(-0.7071,-0.7071,0.7071,-0.7071,308.1091,931.623)" style="opacity: 0.5;" stroke-width="3" opacity="0.5"></ellipse><ellipse cx="594" cy="289" rx="125" ry="176.25" fill="#f5f6f7" stroke="#f5f6f7" transform="matrix(-0.5556,-0.8315,0.8315,-0.5556,683.714,943.4527)" style="opacity: 0.5;" stroke-width="3" opacity="0.5"></ellipse><ellipse cx="670" cy="380" rx="125" ry="176.25" fill="#f5f6f7" stroke="#f5f6f7" transform="matrix(-0.3827,-0.9239,0.9239,-0.3827,575.3237,1144.419)" style="opacity: 0.5;" stroke-width="3" opacity="0.5"></ellipse><ellipse cx="587" cy="419" rx="124" ry="174.84" fill="#f5f6f7" stroke="#f5f6f7" transform="matrix(-0.1951,-0.9808,0.9808,-0.1951,290.569,1076.4638)" style="opacity: 0.5;" stroke-width="3" opacity="0.5"></ellipse><ellipse cx="452" cy="260" rx="129" ry="181.89" fill="#f5f6f7" stroke="#f5f6f7" transform="matrix(0,-1,1,0,192,712)" style="opacity: 0.5;" stroke-width="3" opacity="0.5"></ellipse><ellipse cx="681" cy="428" rx="129" ry="181.89" fill="#f5f6f7" stroke="#f5f6f7" transform="matrix(0.1951,-0.9808,0.9808,0.1951,128.3674,1012.4161)" style="opacity: 0.5;" stroke-width="3" opacity="0.5"></ellipse><ellipse cx="745" cy="362" rx="123" ry="173.42999999999998" fill="#f5f6f7" stroke="#f5f6f7" transform="matrix(0.3827,-0.9239,0.9239,0.3827,125.4565,911.7589)" style="opacity: 0.5;" stroke-width="3" opacity="0.5"></ellipse><ellipse cx="561" cy="299" rx="130" ry="183.29999999999998" fill="#f5f6f7" stroke="#f5f6f7" transform="matrix(0.5556,-0.8315,0.8315,0.5556,0.7157,599.339)" style="opacity: 0.5;" stroke-width="3" opacity="0.5"></ellipse><ellipse cx="579" cy="325" rx="130" ry="183.29999999999998" fill="#f5f6f7" stroke="#f5f6f7" transform="matrix(0.7071,-0.7071,0.7071,0.7071,-60.2245,504.6051)" style="opacity: 0.5;" stroke-width="3" opacity="0.5"></ellipse><ellipse cx="713" cy="329" rx="127" ry="179.07" fill="#f5f6f7" stroke="#f5f6f7" transform="matrix(0.8315,-0.5556,0.5556,0.8315,-62.6204,451.5681)" style="opacity: 0.5;" stroke-width="3" opacity="0.5"></ellipse><ellipse cx="394" cy="389" rx="120" ry="169.2" fill="#f5f6f7" stroke="#f5f6f7" transform="matrix(0.9239,-0.3827,0.3827,0.9239,-118.8724,180.3881)" style="opacity: 0.5;" stroke-width="3" opacity="0.5"></ellipse><ellipse cx="486" cy="364" rx="125" ry="176.25" fill="#f5f6f7" stroke="#f5f6f7" transform="matrix(0.9808,-0.1951,0.1951,0.9808,-61.6745,101.8081)" style="opacity: 0.5;" stroke-width="3" opacity="0.5"></ellipse></svg>