<svg height="678" version="1.1" width="1148" xmlns="http://www.w3.org/2000/svg" style="overflow: hidden; position: relative;"><desc>Created with Raphaël 2.0.1</desc><defs></defs><rect x="0" y="0" width="1148" height="678" r="0" rx="0" ry="0" fill="#f1be32" stroke="none" style=""></rect><ellipse cx="520" cy="306" rx="121" ry="170.60999999999999" fill="#f5f6f7" stroke="#f5f6f7" transform="matrix(1,0,0,1,0,0)" style="opacity: 0.5;" stroke-width="3" opacity="0.5"></ellipse><ellipse cx="539" cy="378" rx="128" ry="180.48" fill="#f5f6f7" stroke="#f5f6f7" transform="matrix(0.9808,0.1951,-0.1951,0.9808,84.1009,-97.8905)" style="opacity: 0.5;" stroke-width="3" opacity="0.5"></ellipse><ellipse cx="667" cy="240" rx="124" ry="174.84" fill="#f5f6f7" stroke="#f5f6f7" transform="matrix(0.9239,0.3827,-0.3827,0.9239,142.6164,-236.9809)" style="opacity: 0.5;" stroke-width="3" opacity="0.5"></ellipse><ellipse cx="320" cy="332" rx="129" ry="181.89" fill="#f5f6f7" stroke="#f5f6f7" transform="matrix(0.8315,0.5556,-0.5556,0.8315,238.379,-121.8304)" style="opacity: 0.5;" stroke-width="3" opacity="0.5"></ellipse><ellipse cx="546" cy="378" rx="126" ry="177.66" fill="#f5f6f7" stroke="#f5f6f7" transform="matrix(0.7071,0.7071,-0.7071,0.7071,427.2061,-275.3667)" style="opacity: 0.5;" stroke-width="3" opacity="0.5"></ellipse><ellipse cx="431" cy="363" rx="130" ry="183.29999999999998" fill="#f5f6f7" stroke="#f5f6f7" transform="matrix(0.5556,0.8315,-0.8315,0.5556,493.3727,-197.0354)" style="opacity: 0.5;" stroke-width="3" opacity="0.5"></ellipse><ellipse cx="817" cy="436" rx="125" ry="176.25" fill="#f5f6f7" stroke="#f5f6f7" transform="matrix(0.3827,0.9239,-0.9239,0.3827,907.1591,-485.6596)" style="opacity: 0.5;" stroke-width="3" opacity="0.5"></ellipse><ellipse cx="620" cy="412" rx="124" ry="174.84" fill="#f5f6f7" stroke="#f5f6f7" transform="matrix(0.1951,0.9808,-0.9808,0.1951,903.1275,-276.4641)" style="opacity: 0.5;" stroke-width="3" opacity="0.5"></ellipse><ellipse cx="557" cy="293" rx="127" ry="179.07" fill="#f5f6f7" stroke="#f5f6f7" transform="matrix(0,1,-1,0,850,-264)" style="opacity: 0.5;" stroke-width="3" opacity="0.5"></ellipse><ellipse cx="447" cy="278" rx="128" ry="180.48" fill="#f5f6f7" stroke="#f5f6f7" transform="matrix(-0.1951,0.9808,-0.9808,-0.1951,806.8637,-106.1759)" style="opacity: 0.5;" stroke-width="3" opacity="0.5"></ellipse><ellipse cx="321" cy="262" rx="128" ry="180.48" fill="#f5f6f7" stroke="#f5f6f7" transform="matrix(-0.3827,0.9239,-0.9239,-0.3827,685.8978,65.6977)" style="opacity: 0.5;" stroke-width="3" opacity="0.5"></ellipse><ellipse cx="340" cy="400" rx="124" ry="174.84" fill="#f5f6f7" stroke="#f5f6f7" transform="matrix(-0.5556,0.8315,-0.8315,-0.5556,861.4817,339.5284)" style="opacity: 0.5;" stroke-width="3" opacity="0.5"></ellipse><ellipse cx="386" cy="289" rx="128" ry="180.48" fill="#f5f6f7" stroke="#f5f6f7" transform="matrix(-0.7071,0.7071,-0.7071,-0.7071,863.2971,220.4106)" style="opacity: 0.5;" stroke-width="3" opacity="0.5"></ellipse><ellipse cx="561" cy="359" rx="127" ry="179.07" fill="#f5f6f7" stroke="#f5f6f7" transform="matrix(-0.8315,0.5556,-0.5556,-0.8315,1226.9042,345.8227)" style="opacity: 0.5;" stroke-width="3" opacity="0.5"></ellipse><ellipse cx="490" cy="400" rx="120" ry="169.2" fill="#f5f6f7" stroke="#f5f6f7" transform="matrix(-0.9239,0.3827,-0.3827,-0.9239,1095.7743,582.0369)" style="opacity: 0.5;" stroke-width="3" opacity="0.5"></ellipse><ellipse cx="751" cy="346" rx="126" ry="177.66" fill="#f5f6f7" stroke="#f5f6f7" transform="matrix(-0.9808,0.1951,-0.1951,-0.9808,1555.071,538.8389)" style="opacity: 0.5;" stroke-width="3" opacity="0.5"></ellipse><ellipse cx="392" cy="265" rx="130" ry="183.29999999999998" fill="#f5f6f7" stroke="#f5f6f7" transform="matrix(-1,0,0,-1,784,530)" style="opacity: 0.5;" stroke-width="3" opacity="0.5"></ellipse><ellipse cx="416" cy="430" rx="130" ry="183.29999999999998" fill="#f5f6f7" stroke="#f5f6f7" transform="matrix(-0.9808,-0.1951,0.1951,-0.9808,740.1178,932.8952)" style="opacity: 0.5;" stroke-width="3" opacity="0.5"></ellipse><ellipse cx="666" cy="387" rx="128" ry="180.48" fill="#f5f6f7" stroke="#f5f6f7" transform="matrix(-0.9239,-0.3827,0.3827,-0.9239,1133.2053,999.4085)" style="opacity: 0.5;" stroke-width="3" opacity="0.5"></ellipse><ellipse cx="763" cy="427" rx="125" ry="176.25" fill="#f5f6f7" stroke="#f5f6f7" transform="matrix(-0.8315,-0.5556,0.5556,-0.8315,1160.1828,1205.9376)" style="opacity: 0.5;" stroke-width="3" opacity="0.5"></ellipse><ellipse cx="430" cy="323" rx="122" ry="172.01999999999998" fill="#f5f6f7" stroke="#f5f6f7" transform="matrix(-0.7071,-0.7071,0.7071,-0.7071,505.6604,855.4514)" style="opacity: 0.5;" stroke-width="3" opacity="0.5"></ellipse><ellipse cx="450" cy="395" rx="122" ry="172.01999999999998" fill="#f5f6f7" stroke="#f5f6f7" transform="matrix(-0.5556,-0.8315,0.8315,-0.5556,371.5761,988.6116)" style="opacity: 0.5;" stroke-width="3" opacity="0.5"></ellipse><ellipse cx="472" cy="378" rx="125" ry="176.25" fill="#f5f6f7" stroke="#f5f6f7" transform="matrix(-0.3827,-0.9239,0.9239,-0.3827,303.4001,958.7255)" style="opacity: 0.5;" stroke-width="3" opacity="0.5"></ellipse><ellipse cx="629" cy="414" rx="122" ry="172.01999999999998" fill="#f5f6f7" stroke="#f5f6f7" transform="matrix(-0.1951,-0.9808,0.9808,-0.1951,345.6667,1111.6813)" style="opacity: 0.5;" stroke-width="3" opacity="0.5"></ellipse><ellipse cx="425" cy="382" rx="126" ry="177.66" fill="#f5f6f7" stroke="#f5f6f7" transform="matrix(0,-1,1,0,43,807)" style="opacity: 0.5;" stroke-width="3" opacity="0.5"></ellipse><ellipse cx="350" cy="293" rx="125" ry="176.25" fill="#f5f6f7" stroke="#f5f6f7" transform="matrix(0.1951,-0.9808,0.9808,0.1951,-5.6517,579.1134)" style="opacity: 0.5;" stroke-width="3" opacity="0.5"></ellipse><ellipse cx="566" cy="418" rx="121" ry="170.60999999999999" fill="#f5f6f7" stroke="#f5f6f7" transform="matrix(0.3827,-0.9239,0.9239,0.3827,-36.7805,780.9541)" style="opacity: 0.5;" stroke-width="3" opacity="0.5"></ellipse><ellipse cx="331" cy="282" rx="129" ry="181.89" fill="#f5f6f7" stroke="#f5f6f7" transform="matrix(0.5556,-0.8315,0.8315,0.5556,-87.3682,400.5456)" style="opacity: 0.5;" stroke-width="3" opacity="0.5"></ellipse><ellipse cx="453" cy="361" rx="128" ry="180.48" fill="#f5f6f7" stroke="#f5f6f7" transform="matrix(0.7071,-0.7071,0.7071,0.7071,-122.5849,426.0538)" style="opacity: 0.5;" stroke-width="3" opacity="0.5"></ellipse><ellipse cx="421" cy="309" rx="130" ry="183.29999999999998" fill="#f5f6f7" stroke="#f5f6f7" transform="matrix(0.8315,-0.5556,0.5556,0.8315,-100.7199,285.971)" style="opacity: 0.5;" stroke-width="3" opacity="0.5"></ellipse><ellipse cx="596" cy="271" rx="124" ry="174.84" fill="#f5f6f7" stroke="#f5f6f7" transform="matrix(0.9239,-0.3827,0.3827,0.9239,-58.3394,248.708)" style="opacity: 0.5;" stroke-width="3" opacity="0.5"></ellipse><ellipse cx="541" cy="427" rx="120" ry="169.2" fill="#f5f6f7" stroke="#f5f6f7" transform="matrix(0.9808,-0.1951,0.1951,0.9808,-72.9084,113.7485)" style="opacity: 0.5;" stroke-width="3" opacity="0.5"></ellipse></svg>